<?xml version="1.0" encoding="utf-8"?>
<!-- Generator: Adobe Illustrator 18.1.1, SVG Export Plug-In . SVG Version: 6.00 Build 0)  -->
<svg version="1.1" id="Capa_1" xmlns="http://www.w3.org/2000/svg" xmlns:xlink="http://www.w3.org/1999/xlink" x="0px" y="0px"
	 viewBox="83.5 29.6 633.7 195.1" enable-background="new 83.5 29.6 633.7 195.1" xml:space="preserve">
<path fill="#5EAAA1" d="M100.8,59.5c0.3-3.2,1.2-6.3,2.6-9.2c11.8-24,56.7-24.8,103.4-1.7c9.8,4.8,18.4,9.9,26.3,15.4
	c-8.3,3.3-15.7,7.2-22.7,11.2c-3.9-2.3-7.9-4.5-12.2-6.6c-38.8-19.1-77.9-22-97.3-9.2L100.8,59.5z"/>
<path fill="#98C8C3" d="M265.2,141c0,3.8-0.9,7.6-2.7,11.1c-2.5,4.9-6.5,11.6-12.6,14.8c-22.1,11.8-64.6,12.7-101.1-7.3
	c-42.2-23.1-68-59.2-62.8-83.6c0.8-3.6,9.4-21.2,10.7-23.5v0c-4.8,24.2,21.4,59.1,63.3,82.1C199.1,156,244.7,155.1,265.2,141
	L265.2,141z"/>
<path fill="#5EAAA1" d="M158.1,168.5c-3.7,8.8-5.6,17.1-5.3,24.6c-2.4-1.4-4.4-2.4-5.9-3.9c-3.6-3.6-5.6-8.6-6.4-13.7
	c-0.8-4.8-0.4-9.9,0.9-15.4C146.6,163.4,152.2,166.2,158.1,168.5z"/>
<path fill="#5EAAA1" d="M177.1,137.9c7.2-8.7,15.9-17.3,25.8-25.2c32.2-25.8,67.8-37.4,89.9-31.4l0.1,0.1c0.4-3.2-0.8-6.3-4-9.6
	c-3-3-8.4-7.2-17.9-8.2c-22-2.2-53.2,9.3-81.6,32.1c-12.7,10.2-23.4,21.1-31.6,31.9C163.8,131.6,170.2,134.9,177.1,137.9z"/>
<path fill="none" stroke="#000CEF" stroke-width="1.4087" stroke-miterlimit="10" d="M294.5,77.2"/>
<path fill="#98C8C3" d="M305.4,86.8c19.7,21.8,7.2,66.8-33.8,102.7c-39.9,34.9-94.9,41.1-108.1,25.1c-4.6-5.5-14.9-17.9-14.9-17.9
	c21.1,13.6,69.3,0.9,102.5-25.6c37.4-29.9,55.5-69.9,46.6-93C297.8,78.2,303.2,84.4,305.4,86.8z"/>
<path fill="#5EAAA1" d="M264.3,136.6c-2.2-12.9-11.6-27.4-26.2-40.9c6.6-3.3,13.5-6.2,20.7-8.2c12,14.8,16.4,29.9,10.2,42.3
	C267.9,132.3,266.2,134.6,264.3,136.6z"/>
<g>
	<path stroke="#000000" stroke-width="2.2032" stroke-miterlimit="10" d="M343.2,59.9h5.2l43.1,74.7V59.9h4.7v83.9h-4.7l-43.6-75.4
		v75.4h-4.7V59.9z"/>
	<path stroke="#000000" stroke-width="2.2032" stroke-miterlimit="10" d="M484,71.2c8.4,8.4,12.6,18.5,12.6,30.4
		c0,11.9-4.2,22.1-12.6,30.4c-8.4,8.4-18.5,12.6-30.4,12.6c-11.9,0-22.1-4.2-30.4-12.6c-8.4-8.4-12.6-18.5-12.6-30.4
		c0-11.9,4.2-22.1,12.6-30.4c8.4-8.4,18.5-12.6,30.4-12.6C465.5,58.6,475.7,62.8,484,71.2z M453.6,63.4c-10.5,0-19.6,3.8-27,11.2
		c-7.5,7.5-11.2,16.5-11.2,27c0,10.5,3.8,19.6,11.2,27.1c7.5,7.5,16.5,11.2,27,11.2s19.6-3.8,27-11.2c7.5-7.5,11.2-16.5,11.2-27.1
		c0-10.5-3.8-19.6-11.2-27C473.2,67.2,464.2,63.4,453.6,63.4z"/>
	<path stroke="#000000" stroke-width="2.2032" stroke-miterlimit="10" d="M508.5,59.9l26.2,72.1L561,59.9h5l-31.3,85.8l-31.2-85.9
		L508.5,59.9L508.5,59.9z"/>
	<path stroke="#000000" stroke-width="2.2032" stroke-miterlimit="10" d="M582.2,59.9v83.9h-4.7V59.9H582.2z"/>
	<path stroke="#000000" stroke-width="2.2032" stroke-miterlimit="10" d="M639.5,111.6h-29l-11.7,32.1h-5L625,57.9l31.2,85.8h-5
		L639.5,111.6z M637.8,106.9L625,71.7l-12.8,35.2L637.8,106.9L637.8,106.9z"/>
	<path stroke="#000000" stroke-width="2.2032" stroke-miterlimit="10" d="M690.6,97.2c-6-2-10.7-4.7-14.2-8.2
		c-3.5-3.5-5.2-7.6-5.2-12.6c0-4.8,1.8-9,5.2-12.5c3.5-3.5,7.6-5.2,12.6-5.2c4.9,0,9.1,1.8,12.6,5.2c1.9,1.9,3.3,3.9,4,6.2l-4.2,1.7
		c-0.6-1.7-1.6-3.3-3.1-4.7c-2.5-2.5-5.6-3.8-9.2-3.8s-6.7,1.3-9.2,3.8c-2.5,2.5-3.8,5.6-3.8,9.3c0,3.6,1.3,6.7,3.8,9.2
		c2.4,2.4,5.6,4.5,9.9,6.4c6.7,2.2,12.4,5.5,17,10.1c4.8,4.8,7.3,10.7,7.3,17.5c0,6.9-2.4,12.8-7.3,17.6s-10.7,7.3-17.6,7.3
		c-6.8,0-12.7-2.4-17.6-7.3c-3.9-3.9-6.2-8.4-7-13.5l4.5-1.6c0.5,4.5,2.4,8.5,5.8,11.9c3.9,3.9,8.7,5.9,14.2,5.9
		c5.6,0,10.4-2,14.3-5.9c3.9-3.9,5.9-8.7,5.9-14.3c0-5.6-2-10.3-5.9-14.2C699.8,102.1,695.6,99.3,690.6,97.2z"/>
</g>
<g>
	<path d="M373.5,169.5l-2.5,1.9c-1.4-1.8-3-3.2-5-4.1c-1.9-0.9-4.1-1.4-6.4-1.4c-2.5,0-4.8,0.6-7,1.8s-3.8,2.8-5,4.9
		c-1.2,2.1-1.8,4.4-1.8,6.9c0,3.9,1.3,7.1,4,9.6c2.7,2.6,6,3.9,10,3.9c4.4,0,8.1-1.8,11.2-5.2l2.5,1.9c-1.6,2-3.6,3.6-5.9,4.7
		c-2.4,1.1-5,1.6-7.9,1.6c-5.5,0-9.9-1.8-13.1-5.5c-2.7-3.1-4-6.8-4-11.3c0-4.6,1.6-8.5,4.8-11.7c3.3-3.2,7.3-4.7,12.2-4.7
		c3,0,5.6,0.6,8,1.8C370,165.8,371.9,167.4,373.5,169.5z"/>
	<path d="M414.1,171.3c3.6,0,6.6,1.3,9,3.9c2.2,2.4,3.2,5.2,3.2,8.5c0,3.3-1.2,6.1-3.4,8.6c-2.3,2.4-5.2,3.7-8.8,3.7
		c-3.6,0-6.5-1.2-8.8-3.7c-2.3-2.4-3.4-5.3-3.4-8.6c0-3.2,1.1-6.1,3.2-8.4C407.4,172.6,410.4,171.3,414.1,171.3z M414,174.3
		c-2.5,0-4.7,0.9-6.5,2.8c-1.8,1.9-2.7,4.1-2.7,6.7c0,1.7,0.4,3.3,1.2,4.7c0.8,1.5,1.9,2.6,3.3,3.4c1.4,0.8,2.9,1.2,4.6,1.2
		c1.7,0,3.2-0.4,4.6-1.2c1.4-0.8,2.5-1.9,3.3-3.4c0.8-1.5,1.2-3,1.2-4.7c0-2.6-0.9-4.8-2.7-6.7C418.7,175.2,416.5,174.3,414,174.3z"
		/>
	<path d="M455,162.9h3v32.5h-3V162.9z"/>
	<path d="M499,171.3c3.6,0,6.6,1.3,9,3.9c2.2,2.4,3.2,5.2,3.2,8.5c0,3.3-1.2,6.1-3.4,8.6c-2.3,2.4-5.2,3.7-8.8,3.7
		c-3.6,0-6.5-1.2-8.8-3.7c-2.3-2.4-3.4-5.3-3.4-8.6c0-3.2,1.1-6.1,3.2-8.4C492.4,172.6,495.3,171.3,499,171.3z M499,174.3
		c-2.5,0-4.7,0.9-6.5,2.8s-2.7,4.1-2.7,6.7c0,1.7,0.4,3.3,1.2,4.7c0.8,1.5,1.9,2.6,3.3,3.4c1.4,0.8,2.9,1.2,4.6,1.2s3.2-0.4,4.6-1.2
		c1.4-0.8,2.5-1.9,3.3-3.4c0.8-1.5,1.2-3,1.2-4.7c0-2.6-0.9-4.8-2.7-6.7C503.6,175.2,501.4,174.3,499,174.3z"/>
	<path d="M540.3,171.9h3v4.1c1-1.5,2.1-2.6,3.2-3.3c1.5-0.9,3.2-1.4,4.8-1.4c1.2,0,2.2,0.2,3.2,0.7c1,0.4,1.9,1,2.5,1.8
		c0.7,0.7,1.2,1.8,1.7,3.2c1-1.8,2.2-3.2,3.8-4.2c1.5-1,3.1-1.5,4.8-1.5c1.6,0,3,0.4,4.3,1.2s2.2,1.9,2.8,3.4
		c0.6,1.5,0.9,3.6,0.9,6.6v12.8h-3.1v-12.7c0-2.5-0.2-4.2-0.5-5.2s-1-1.7-1.8-2.2s-1.9-0.8-3.1-0.8c-1.5,0-2.8,0.4-4,1.3
		c-1.2,0.8-2.1,2-2.7,3.5c-0.5,1.5-0.8,3.8-0.8,7.2v9.2h-3v-12c0-2.8-0.2-4.7-0.5-5.8c-0.4-1-1-1.8-1.8-2.4
		c-0.8-0.6-1.9-0.9-3.1-0.9c-1.4,0-2.7,0.4-3.9,1.3c-1.2,0.8-2.1,1.9-2.7,3.4c-0.5,1.5-0.8,3.6-0.8,6.5v9.9h-3L540.3,171.9
		L540.3,171.9z"/>
	<path d="M605.5,195.3v-32.5h3v13.1c1.3-1.6,2.7-2.7,4.2-3.5c1.6-0.8,3.3-1.2,5.2-1.2c3.3,0,6.1,1.2,8.5,3.6
		c2.4,2.4,3.5,5.3,3.5,8.7c0,3.4-1.2,6.3-3.6,8.7c-2.4,2.4-5.2,3.6-8.5,3.6c-1.9,0-3.6-0.4-5.2-1.2c-1.6-0.8-2.9-2.1-4.1-3.7v4.3
		L605.5,195.3L605.5,195.3z M617.6,193c1.7,0,3.2-0.4,4.7-1.2c1.5-0.8,2.5-2,3.4-3.5c0.8-1.5,1.3-3.1,1.3-4.7c0-1.6-0.4-3.3-1.3-4.7
		c-0.8-1.5-2-2.7-3.4-3.5c-1.5-0.8-3-1.3-4.5-1.3c-1.6,0-3.2,0.4-4.7,1.3c-1.5,0.8-2.6,1.9-3.4,3.4c-0.8,1.4-1.2,3-1.2,4.8
		c0,2.7,0.9,5,2.7,6.8C612.8,192.1,614.9,193,617.6,193z"/>
	<path d="M660,162.3c0.7,0,1.3,0.2,1.8,0.7c0.5,0.5,0.7,1.1,0.7,1.8c0,0.7-0.2,1.3-0.7,1.8c-0.5,0.5-1.1,0.7-1.8,0.7
		c-0.7,0-1.3-0.2-1.8-0.7c-0.5-0.5-0.7-1.1-0.7-1.8c0-0.7,0.2-1.3,0.7-1.8C658.8,162.5,659.4,162.3,660,162.3z M658.6,171.9h3v23.4
		h-3V171.9z"/>
	<path d="M714.8,171.9v23.4h-3v-4c-1.3,1.5-2.7,2.7-4.2,3.5c-1.6,0.8-3.3,1.2-5.2,1.2c-3.3,0-6.1-1.2-8.5-3.6
		c-2.4-2.4-3.5-5.3-3.5-8.8c0-3.4,1.2-6.2,3.6-8.7c2.4-2.4,5.2-3.6,8.5-3.6c1.9,0,3.6,0.4,5.2,1.2c1.6,0.8,2.9,2.1,4.1,3.7v-4.3
		H714.8z M702.8,174.2c-1.7,0-3.2,0.4-4.7,1.2c-1.4,0.8-2.5,2-3.4,3.5c-0.8,1.5-1.3,3.1-1.3,4.7c0,1.6,0.4,3.2,1.3,4.7
		c0.8,1.5,2,2.7,3.4,3.5c1.5,0.8,3,1.3,4.6,1.3s3.2-0.4,4.7-1.3c1.5-0.8,2.6-1.9,3.4-3.4c0.8-1.5,1.2-3,1.2-4.8c0-2.7-0.9-5-2.7-6.8
		C707.5,175.1,705.4,174.2,702.8,174.2z"/>
</g>
<rect x="83.5" y="29.6" fill="none" width="633.7" height="195.1"/>
</svg>
