<?xml version="1.0" encoding="utf-8"?>
<!-- Generator: Adobe Illustrator 18.1.1, SVG Export Plug-In . SVG Version: 6.00 Build 0)  -->
<svg version="1.1" id="Capa_1" xmlns="http://www.w3.org/2000/svg" xmlns:xlink="http://www.w3.org/1999/xlink" x="0px" y="0px"
	 viewBox="0 0 400 400" enable-background="new 0 0 400 400" xml:space="preserve">
<rect fill="none" width="400" height="400"/>
<path display="none" fill="#8B8B8A" d="M390.2,152.5c0-0.1,0.1-0.2,0.1-0.3c0-1.8-0.6-3.4-1.5-4.8c-0.1-0.2,0-0.4-0.1-0.5
	L310.3,32.4c-0.2-0.2-0.5-0.4-0.7-0.6c-0.6-0.7-1.3-1.4-2.1-1.9c-0.4-0.3-0.9-0.5-1.3-0.7c-0.3-0.1-0.6-0.4-0.9-0.5
	c-0.6-0.2-1.2-0.1-1.8-0.2c-0.3,0-0.6-0.2-1-0.2H100c-0.3,0-0.6,0.2-1,0.2c-0.6,0.1-1.3,0-1.9,0.2c-0.3,0.1-0.5,0.3-0.8,0.5
	c-0.5,0.2-0.9,0.5-1.3,0.7c-0.8,0.5-1.5,1.1-2,1.8c-0.2,0.2-0.5,0.3-0.7,0.6L11.5,146.8c-0.1,0.2-0.1,0.4-0.2,0.5
	c-0.9,1.5-1.6,3.1-1.6,4.9c0,0.1,0.1,0.2,0.1,0.3c0,0.2,0.1,0.4,0.1,0.6c0.2,1.8,0.9,3.5,2,4.9c0.1,0.1,0.1,0.3,0.2,0.4l185,209.7
	c0.3,0.4,0.8,0.5,1.1,0.8c0.4,0.3,0.7,0.5,1.1,0.8c1.5,0.9,3.1,1.6,4.9,1.6c0,0,0,0,0.1,0c0,0,0,0,0,0c1.8,0,3.4-0.7,4.9-1.7
	c0.4-0.2,0.7-0.5,1-0.8c0.4-0.3,0.8-0.5,1.1-0.9L388,158.3c0.1-0.1,0.1-0.4,0.2-0.5c1-1.3,1.7-2.9,1.8-4.7
	C390.1,152.9,390.2,152.7,390.2,152.5z M96.8,58.6l27.1,84.1H37.5L96.8,58.6z M255.1,161.7L204,330.2l-54.2-168.6H255.1z M153,142.8
	l48.6-86.4l52.4,86.4H153z M218,47.2h71.7L265.9,126L218,47.2z M139.2,128.7L113,47.2h72.1L139.2,128.7z M129.9,161.7l51.5,160.1
	L40.2,161.7H129.9z M274.8,161.7h85.7l-133.9,159L274.8,161.7z M280.5,142.8l25.3-83.5l57.1,83.5H280.5z"/>
<path display="none" fill="#8B8B8A" d="M389.7,235.9h-23.4c-2.6-40.4-19.6-78-48.5-106.9c-24.2-24.2-54.6-40.1-87.6-46.1
	c1.9-4.2,3-8.9,3-13.9c0-18.4-15-33.4-33.4-33.4s-33.4,15-33.4,33.4c0,4.9,1.1,9.6,3,13.9c-33,6-63.4,21.9-87.6,46.1
	C53,157.9,36,195.5,33.4,235.9H10v22.2h27.2l22.2,44.5h102.7l-14.8,44.5H122v22.2h155.7v-22.2h-25.4l-14.8-44.5h102.7l22.2-44.5
	h27.2V235.9z M188.7,69c0-6.1,5-11.1,11.1-11.1S211,62.9,211,69c0,6.1-5,11.1-11.1,11.1S188.7,75.1,188.7,69z M199.9,102.4
	c76,0,138.5,58.9,144.2,133.5H55.7C61.4,161.3,123.9,102.4,199.9,102.4z M228.9,347.1h-58.1l14.8-44.5h28.5L228.9,347.1z
	 M326.5,280.4H73.2l-11.1-22.2h275.5L326.5,280.4z"/>
<g display="none">
	<g display="inline">
		<g>
			<path fill="#8B8B8A" d="M353.1,215c-4.1,0-7.4,3.3-7.4,7.4c0,4.4,3.8,7.8,8.2,7.4c3.8-0.4,6.7-3.6,6.7-7.4
				C360.5,218.3,357.2,215,353.1,215z"/>
		</g>
	</g>
	<g display="inline">
		<g>
			<path fill="#8B8B8A" d="M200.1,185.3c-4.1,0-7.4,3.3-7.4,7.4c0,3.8,2.9,7,6.7,7.4c4.4,0.4,8.2-3,8.2-7.4
				C207.5,188.6,204.2,185.3,200.1,185.3z"/>
		</g>
	</g>
	<g display="inline">
		<g>
			<path fill="#8B8B8A" d="M200.1,155.6c-53.2,0-96.5,43.3-96.5,96.5s43.3,96.5,96.5,96.5s96.5-43.3,96.5-96.5
				S253.3,155.6,200.1,155.6z M200.1,333.8c-45,0-81.7-36.6-81.7-81.7s36.6-81.7,81.7-81.7s81.7,36.6,81.7,81.7
				S245.1,333.8,200.1,333.8z"/>
		</g>
	</g>
	<g display="inline">
		<g>
			<path fill="#8B8B8A" d="M232.5,193.6c-3.6-2-8.1-0.7-10.1,2.9c-2,3.6-0.7,8.1,2.9,10.1c16.6,9.2,26.8,26.6,26.8,45.5
				c0,4.1,3.3,7.4,7.4,7.4c4.1,0,7.4-3.3,7.4-7.4C266.9,227.8,253.7,205.4,232.5,193.6z"/>
		</g>
	</g>
	<g display="inline">
		<g>
			<path fill="#8B8B8A" d="M367.9,140.7h-7.4v-22.3c0-4.1-3.3-7.4-7.4-7.4h-29.7c-4.1,0-7.4,3.3-7.4,7.4v22.3h-56.4
				c-7.1-3.8-14.6-6.9-22.3-9.3V111h22.3c12.3,0,22.3-10,22.3-22.3V44.2c0-12.3-10-22.3-22.3-22.3H140.7c-12.3,0-22.3,10-22.3,22.3
				v44.6c0,12.3,10,22.3,22.3,22.3H163v20.4c-7.7,2.4-15.2,5.5-22.3,9.3c-17.7,0-39.8,0-56.4,0v-22.3c0-4.1-3.3-7.4-7.4-7.4H47.1
				c-4.1,0-7.4,3.3-7.4,7.4v22.3h-7.4C20,140.7,10,150.7,10,163c0,7.3,0,170.3,0,178.2c0,12.3,10,22.3,22.3,22.3h108.4
				c18.2,9.7,38.7,14.9,59.4,14.9s41.2-5.1,59.4-14.9h108.4c12.3,0,22.3-10,22.3-22.3c0-7.3,0-170.3,0-178.2
				C390.2,150.7,380.2,140.7,367.9,140.7z M330.8,125.9h14.9v14.9h-14.9V125.9z M140.7,96.2c-4.1,0-7.4-3.3-7.4-7.4V44.2
				c0-4.1,3.3-7.4,7.4-7.4h118.8c4.1,0,7.4,3.3,7.4,7.4v44.6c0,4.1-3.3,7.4-7.4,7.4H140.7z M222.4,111v16.8c-7.3-1.3-14.8-2-22.3-2
				s-15,0.7-22.3,2V111H222.4z M54.6,125.9h14.9v14.9H54.6V125.9z M24.9,163c0-4.1,3.3-7.5,7.4-7.5h86.5C108.7,164,100,174,93,185.3
				H24.9V163z M24.9,200H85c-7.3,16.2-11.2,34.1-11.2,52.1c0,18,3.8,35.7,11.2,52H24.9V200z M32.3,348.6c-4.1,0-7.4-3.3-7.4-7.4
				v-22.3H93c7,11.2,15.7,21.2,25.8,29.7H32.3z M200.1,363.5c-61.6,0-111.4-49.9-111.4-111.4c0-61.2,49.6-111.4,111.4-111.4
				c61.5,0,111.4,49.9,111.4,111.4C311.5,313.8,261.4,363.5,200.1,363.5z M375.4,341.2c0,4.1-3.3,7.4-7.4,7.4h-86.5
				c10.1-8.5,18.8-18.5,25.8-29.7h68.1V341.2z M375.4,304.1h-60.2c7.3-16.2,11.2-34,11.2-52s-3.8-35.7-11.2-52h60.2V304.1z
				 M375.4,185.3h-68.1c-7-11.2-15.7-21.2-25.8-29.7h86.5c4.1,0,7.4,3.3,7.4,7.4V185.3z"/>
		</g>
	</g>
	<g display="inline">
		<g>
			<path fill="#8B8B8A" d="M244.7,51.6c-4.1,0-7.4,3.3-7.4,7.4v14.9c0,4.1,3.3,7.4,7.4,7.4c4.1,0,7.4-3.3,7.4-7.4V59
				C252.1,54.9,248.8,51.6,244.7,51.6z"/>
		</g>
	</g>
</g>
<g display="none">
	<g display="inline">
		<path fill="#8B8B8A" d="M347.5,15.8c-8.6-6-19.6-7.4-29.4-3.8L156.4,71.5c-12.5,4.6-21,16.7-21,30.1v181.9
			c-9.2-6.5-21.1-9.1-34-7.3c-14.6,2.1-29.1,9.7-40.8,21.3c-11.7,11.7-19.2,26.1-21.3,40.8c-2.2,15.6,1.9,29.5,11.6,39.2
			c8,8,18.9,12.2,31.2,12.2c2.6,0,5.3-0.2,8.1-0.6c14.6-2.1,29.1-9.7,40.8-21.3c11.7-11.7,19.2-26.1,21.3-40.8
			c0.3-2.3,0.5-4.6,0.6-6.8c0-0.1,0-157.8,0-157.8l190.9-70.3v114.6c-9.2-6.5-21.1-9.1-34-7.3c-14.6,2.1-29.1,9.7-40.8,21.3
			s-19.2,26.1-21.3,40.8c-2.2,15.6,1.9,29.5,11.6,39.2c8,8,18.9,12.2,31.2,12.2c2.6,0,5.3-0.2,8.1-0.6c14.6-2.1,29.1-9.7,40.8-21.3
			c11.7-11.7,19.2-26.1,21.3-40.8c0.3-2.3,0.6-208.3,0.6-208.3C361.2,31.6,356.1,21.8,347.5,15.8z M135.4,319.3
			c0,1.7-0.1,3.5-0.4,5.3c-1.6,10.9-7.4,21.9-16.4,30.9c-9,9-20,14.8-30.9,16.4c-10,1.4-18.7-1-24.4-6.7c-5.8-5.8-8.1-14.4-6.7-24.4
			c1.6-10.9,7.4-21.9,16.4-30.9c9-9,20-14.8,30.9-16.4c1.9-0.3,3.7-0.4,5.5-0.4c7.7,0,14.2,2.5,18.9,7.1c4.7,4.7,7.1,11.2,7.1,18.8
			L135.4,319.3L135.4,319.3z M343.8,73.7L152.9,144v-42.4c0-6.1,3.8-11.6,9.6-13.7l161.6-59.5c4.6-1.7,9.4-1,13.4,1.7
			c4,2.8,6.3,7.2,6.3,12V73.7z M343.8,242.6c0,1.7-0.1,3.5-0.4,5.4c-1.6,10.9-7.4,21.9-16.4,30.9c-9,9-20,14.8-30.9,16.4
			c-10,1.4-18.7-1-24.4-6.7s-8.1-14.4-6.7-24.4c1.6-10.9,7.4-21.9,16.4-30.9c9-9,20-14.8,30.9-16.4c1.9-0.3,3.7-0.4,5.5-0.4
			c7.7,0,14.2,2.5,18.9,7.1c4.7,4.7,7.1,11.2,7.1,18.8L343.8,242.6L343.8,242.6z"/>
	</g>
</g>
<g display="none">
	<g display="inline">
		<g>
			<path fill="#8B8B8A" d="M322.5,165.8v-42.3c0-18.4-15-33.4-33.4-33.4H188.9v52.7H70.1v22.3h-4.5C35,165.1,10,190,10,220.7
				c0,18.4,15,33.4,33.4,33.4h13c4.6,13,17,22.3,31.5,22.3s26.9-9.3,31.5-22.3h161.2c4.6,13,17,22.3,31.5,22.3s26.9-9.3,31.5-22.3
				H390V243C390,203.6,360.5,170.9,322.5,165.8z M198.4,98.3h48.2v44.5h-48.2V98.3z M87.9,266.6c-12.9,0-23.5-10.5-23.5-23.5
				s10.5-23.5,23.5-23.5s23.5,10.5,23.5,23.5S100.8,266.6,87.9,266.6z M120.3,244.2c0-22.5-17.9-34.6-32.4-34.6s-26.9,9.3-31.5,22.3
				c-1.2,4.1-1.8,7.9-1.5,11.2l-15.3,0c-15.2-2.3-19.2-16.1-19.2-22.2c0-18.4,12.4-45,46.2-45h15.8c27.2-1.1,53.2,18.8,68.1,33.3
				c18.6,18,66.6,31.1,83.5,34.7L120.3,244.2z M235.3,229.7l-26.9-5.3c-21.3-4.2-40.7-14.6-56-29.9c-16.3-16.3-37.3-26.3-59.9-28.8
				l-11.5-1v-11.8l174.8-0.4V98.1h33.4c9.5-0.7,26.6,8.4,26.5,25.8l-0.1,41.2C269.5,164.2,241,196.9,235.3,229.7z M312.4,266.3
				c-12.9,0-23.3-10.5-23.3-23.3c0-12.9,10.5-23.3,23.3-23.3c12.9,0,23.3,10.5,23.3,23.3C335.7,255.9,325.3,266.3,312.4,266.3z
				 M344,244.3c0-22.7-17.4-34.6-31.9-34.6c-14.5,0-32.6,12.3-32.3,34.2l-37.6,0.1c5.7-56.7,45.9-70.2,70.6-70.2
				c35.4,0,68.8,28.2,68.8,70.5H344z"/>
		</g>
	</g>
	<g display="inline">
		<g>
			<polygon fill="#8B8B8A" points="312.1,276.4 87.9,276.4 10,276.4 10,287.7 390,287.7 390,276.4 			"/>
		</g>
	</g>
</g>
<g>
	<g>
		<g>
			<path fill="#8B8B8A" d="M192.4,73.9h-65 M272.2,73.9h-65 M112.6,73.9H89.8c-12.2,0-22.2,10-22.2,22.2v28.3v44.9H55
				c-12.2,0-22.2,10-22.2,22.2V224v79.3H17.4c-4.1,0-7.4,3.3-7.4,7.4c0,4.1,3.3,7.4,7.4,7.4h22.8h319.2h22.8c4.1,0,7.4-3.3,7.4-7.4
				c0-4.1-3.3-7.4-7.4-7.4h-15.4V224v-32.5c0-12.2-10-22.2-22.2-22.2H332v-44.9V96.1c0-12.2-10-22.2-22.2-22.2H287 M89.8,88.8h220
				c4.1,0,7.4,3.3,7.4,7.4v23.3c-3.3,1-6.8,1.5-10.9,1.5c-11.1,0-16.1-3.4-22.5-7.6c-7.1-4.7-15.2-10.1-30.7-10.1
				c-15.5,0-23.6,5.4-30.7,10.1c-6.4,4.3-11.4,7.6-22.5,7.6s-16.1-3.4-22.5-7.6c-7.1-4.7-15.2-10.1-30.7-10.1
				c-15.5,0-23.6,5.4-30.7,10.1c-6.4,4.3-11.4,7.6-22.5,7.6c-4.2,0-7.7-0.5-10.9-1.5V96.1h0C82.5,92.1,85.8,88.8,89.8,88.8z
				 M352,303.3H47.6V232c6.3,1.2,10.3,3.8,15.1,7c7.1,4.7,15.2,10.1,30.7,10.1c15.5,0,23.6-5.4,30.7-10.1c6.4-4.3,11.4-7.6,22.5-7.6
				c11.1,0,16.1,3.4,22.5,7.6c7.1,4.7,15.2,10.1,30.7,10.1c15.5,0,23.6-5.4,30.7-10.1c6.4-4.3,11.4-7.6,22.5-7.6
				c11.1,0,16.1,3.4,22.5,7.6c7.1,4.7,15.2,10.1,30.7,10.1c15.5,0,23.6-5.4,30.7-10.1c4.8-3.2,8.8-5.8,15.1-7V303.3z M352,217
				c-10.9,1.4-17.4,5.7-23.3,9.7c-6.4,4.3-11.4,7.6-22.5,7.6s-16.1-3.4-22.5-7.6c-7.1-4.7-15.2-10.1-30.7-10.1
				c-15.5,0-23.6,5.4-30.7,10.1c-6.4,4.3-11.4,7.6-22.5,7.6c-11.1,0-16.1-3.4-22.5-7.6c-7.1-4.7-15.2-10.1-30.7-10.1
				c-15.5,0-23.6,5.4-30.7,10.1c-6.4,4.3-11.4,7.6-22.5,7.6c-11.1,0-16.1-3.4-22.5-7.6c-5.9-3.9-12.4-8.3-23.3-9.7v-25.5
				c0-4.1,3.3-7.4,7.4-7.4h56.9c4.1,0,7.4-3.3,7.4-7.4s-3.3-7.4-7.4-7.4H82.5v-34.6c3.4,0.7,7,1,10.9,1c15.5,0,23.6-5.4,30.7-10.1
				c6.4-4.3,11.4-7.6,22.5-7.6c11.1,0,16.1,3.4,22.5,7.6c7.1,4.7,15.2,10.1,30.7,10.1c15.5,0,23.6-5.4,30.7-10.1
				c6.4-4.3,11.4-7.6,22.5-7.6c11.1,0,16.1,3.4,22.5,7.6c7.1,4.7,15.2,10.1,30.7,10.1c3.9,0,7.5-0.3,10.9-1v34.6H171
				c-4.1,0-7.4,3.3-7.4,7.4c0,4.1,3.3,7.4,7.4,7.4h173.7c4.1,0,7.4,3.3,7.4,7.4L352,217L352,217z"/>
		</g>
	</g>
	<g>
		<g>
			<path fill="#8B8B8A" d="M258.1,145.9c-0.1-0.5-0.2-0.9-0.4-1.4c-0.2-0.4-0.4-0.9-0.7-1.3c-0.3-0.4-0.6-0.8-0.9-1.1
				c-0.3-0.3-0.7-0.7-1.1-0.9c-0.4-0.3-0.8-0.5-1.3-0.7c-0.5-0.2-0.9-0.3-1.4-0.4c-1-0.2-1.9-0.2-2.9,0c-0.5,0.1-0.9,0.2-1.4,0.4
				c-0.5,0.2-0.9,0.4-1.3,0.7c-0.4,0.3-0.8,0.6-1.1,0.9c-0.3,0.3-0.7,0.7-0.9,1.1c-0.3,0.4-0.5,0.8-0.7,1.3
				c-0.2,0.5-0.3,0.9-0.4,1.4c-0.1,0.5-0.1,1-0.1,1.5c0,0.5,0.1,1,0.1,1.4c0.1,0.5,0.2,0.9,0.4,1.4c0.2,0.4,0.4,0.9,0.7,1.3
				c0.3,0.4,0.6,0.8,0.9,1.1c0.3,0.3,0.7,0.7,1.1,0.9c0.4,0.3,0.8,0.5,1.3,0.7c0.4,0.2,0.9,0.3,1.4,0.4s1,0.1,1.4,0.1s1-0.1,1.5-0.1
				c0.5-0.1,0.9-0.2,1.4-0.4c0.4-0.2,0.9-0.4,1.3-0.7c0.4-0.3,0.8-0.6,1.1-0.9c0.3-0.3,0.7-0.7,0.9-1.1c0.3-0.4,0.5-0.8,0.7-1.3
				c0.2-0.4,0.3-0.9,0.4-1.4c0.1-0.5,0.1-1,0.1-1.4C258.2,146.9,258.2,146.4,258.1,145.9z"/>
		</g>
	</g>
	<g>
		<g>
			<path fill="#8B8B8A" d="M161.3,135.8c-0.1-0.5-0.2-0.9-0.4-1.4c-0.2-0.4-0.4-0.9-0.7-1.3c-0.3-0.4-0.6-0.8-0.9-1.1
				c-0.3-0.3-0.7-0.7-1.1-0.9c-0.4-0.3-0.8-0.5-1.3-0.7c-0.4-0.2-0.9-0.3-1.4-0.4c-1-0.2-1.9-0.2-2.9,0c-0.5,0.1-0.9,0.2-1.4,0.4
				c-0.4,0.2-0.9,0.4-1.3,0.7c-0.4,0.3-0.8,0.6-1.1,0.9c-0.3,0.3-0.6,0.7-0.9,1.1c-0.3,0.4-0.5,0.8-0.7,1.3
				c-0.2,0.4-0.3,0.9-0.4,1.4c-0.1,0.5-0.1,1-0.1,1.5c0,0.5,0,1,0.1,1.4c0.1,0.5,0.2,0.9,0.4,1.4c0.2,0.4,0.4,0.9,0.7,1.3
				c0.3,0.4,0.6,0.8,0.9,1.1c0.3,0.3,0.7,0.6,1.1,0.9c0.4,0.3,0.8,0.5,1.3,0.7c0.4,0.2,0.9,0.3,1.4,0.4c0.5,0.1,1,0.1,1.5,0.1
				c0.5,0,1-0.1,1.4-0.1c0.5-0.1,0.9-0.2,1.4-0.4c0.4-0.2,0.9-0.4,1.3-0.7c0.4-0.3,0.8-0.6,1.1-0.9c0.3-0.3,0.6-0.7,0.9-1.1
				c0.3-0.4,0.5-0.8,0.7-1.3c0.2-0.4,0.3-0.9,0.4-1.4c0.1-0.5,0.1-1,0.1-1.4C161.4,136.8,161.4,136.3,161.3,135.8z"/>
		</g>
	</g>
	<g>
		<g>
			<path fill="#8B8B8A" d="M162,262.7c-0.1-0.5-0.2-0.9-0.4-1.4c-0.2-0.4-0.4-0.9-0.7-1.3c-0.3-0.4-0.6-0.8-0.9-1.1
				s-0.7-0.7-1.1-0.9c-0.4-0.3-0.8-0.5-1.3-0.7c-0.5-0.2-0.9-0.3-1.4-0.4c-1-0.2-1.9-0.2-2.9,0c-0.5,0.1-0.9,0.2-1.4,0.4
				c-0.5,0.2-0.9,0.4-1.3,0.7c-0.4,0.3-0.8,0.6-1.1,0.9c-0.3,0.3-0.7,0.7-0.9,1.1c-0.3,0.4-0.5,0.8-0.7,1.3
				c-0.2,0.4-0.3,0.9-0.4,1.4c-0.1,0.5-0.1,1-0.1,1.4c0,0.5,0.1,1,0.1,1.5c0.1,0.5,0.2,0.9,0.4,1.4c0.2,0.4,0.4,0.9,0.7,1.3
				c0.3,0.4,0.6,0.8,0.9,1.1c0.3,0.3,0.7,0.6,1.1,0.9c0.4,0.3,0.8,0.5,1.3,0.7c0.4,0.2,0.9,0.3,1.4,0.4c0.5,0.1,1,0.1,1.4,0.1
				c0.5,0,1-0.1,1.5-0.1c0.5-0.1,0.9-0.2,1.4-0.4c0.4-0.2,0.9-0.4,1.3-0.7c0.4-0.3,0.8-0.6,1.1-0.9c0.3-0.3,0.7-0.7,0.9-1.1
				c0.3-0.4,0.5-0.8,0.7-1.3c0.2-0.4,0.3-0.9,0.4-1.4c0.1-0.5,0.1-1,0.1-1.5C162.1,263.6,162.1,263.2,162,262.7z"/>
		</g>
	</g>
	<g>
		<g>
			<path fill="#8B8B8A" d="M247.7,284.8c-0.1-0.5-0.2-0.9-0.4-1.4c-0.2-0.4-0.4-0.9-0.7-1.3c-0.3-0.4-0.6-0.8-0.9-1.1
				c-0.3-0.3-0.7-0.6-1.1-0.9c-0.4-0.3-0.8-0.5-1.3-0.7c-0.4-0.2-0.9-0.3-1.4-0.4c-1-0.2-1.9-0.2-2.9,0c-0.5,0.1-0.9,0.2-1.4,0.4
				c-0.4,0.2-0.9,0.4-1.3,0.7c-0.4,0.3-0.8,0.6-1.1,0.9c-0.3,0.3-0.7,0.7-0.9,1.1c-0.3,0.4-0.5,0.8-0.7,1.3
				c-0.2,0.4-0.3,0.9-0.4,1.4c-0.1,0.5-0.1,1-0.1,1.5c0,0.5,0,1,0.1,1.4c0.1,0.5,0.2,0.9,0.4,1.4c0.2,0.4,0.4,0.9,0.7,1.3
				c0.3,0.4,0.6,0.8,0.9,1.1c0.3,0.3,0.7,0.7,1.1,0.9c0.4,0.3,0.8,0.5,1.3,0.7c0.5,0.2,0.9,0.3,1.4,0.4c0.5,0.1,1,0.1,1.5,0.1
				c1.9,0,3.9-0.8,5.2-2.2c0.3-0.3,0.7-0.7,0.9-1.1c0.3-0.4,0.5-0.8,0.7-1.3c0.2-0.4,0.3-0.9,0.4-1.4c0.1-0.5,0.1-1,0.1-1.4
				C247.9,285.8,247.8,285.3,247.7,284.8z"/>
		</g>
	</g>
	<g>
		<g>
			<path fill="#8B8B8A" d="M331.8,267.1c-0.1-0.5-0.2-0.9-0.4-1.4s-0.4-0.9-0.7-1.3c-0.3-0.4-0.6-0.8-0.9-1.1
				c-1.4-1.4-3.3-2.2-5.2-2.2c-2,0-3.9,0.8-5.2,2.2c-0.3,0.3-0.6,0.7-0.9,1.1c-0.3,0.4-0.5,0.8-0.7,1.3c-0.2,0.4-0.3,0.9-0.4,1.4
				c-0.1,0.5-0.1,1-0.1,1.4c0,0.5,0,1,0.1,1.5c0.1,0.5,0.2,0.9,0.4,1.4c0.2,0.4,0.4,0.9,0.7,1.3c0.3,0.4,0.6,0.8,0.9,1.1
				c0.3,0.3,0.7,0.6,1.1,0.9c0.4,0.3,0.8,0.5,1.3,0.7c0.4,0.2,0.9,0.3,1.4,0.4c0.5,0.1,1,0.1,1.5,0.1c1.9,0,3.9-0.8,5.2-2.2
				c0.3-0.3,0.7-0.7,0.9-1.1c0.3-0.4,0.5-0.8,0.7-1.3c0.2-0.5,0.3-0.9,0.4-1.4c0.1-0.5,0.1-1,0.1-1.5
				C332,268.1,331.9,267.6,331.8,267.1z"/>
		</g>
	</g>
	<g>
		<g>
			<path fill="#8B8B8A" d="M82.3,284.8c-0.1-0.5-0.2-0.9-0.4-1.4c-0.2-0.4-0.4-0.9-0.7-1.3c-0.3-0.4-0.6-0.8-0.9-1.1
				c-0.3-0.3-0.7-0.6-1.1-0.9c-0.4-0.3-0.8-0.5-1.3-0.7c-0.4-0.2-0.9-0.3-1.4-0.4c-2.4-0.5-5,0.3-6.7,2c-0.3,0.3-0.7,0.7-0.9,1.1
				c-0.3,0.4-0.5,0.8-0.7,1.3s-0.3,0.9-0.4,1.4c-0.1,0.5-0.1,1-0.1,1.5c0,0.5,0,1,0.1,1.4c0.1,0.5,0.2,0.9,0.4,1.4s0.4,0.9,0.7,1.3
				c0.3,0.4,0.6,0.8,0.9,1.1c1.4,1.4,3.3,2.2,5.2,2.2c0.5,0,1-0.1,1.4-0.1c0.5-0.1,0.9-0.2,1.4-0.4c0.4-0.2,0.9-0.4,1.3-0.7
				c0.4-0.3,0.8-0.6,1.1-0.9c0.3-0.3,0.7-0.7,0.9-1.1c0.3-0.4,0.5-0.8,0.7-1.3c0.2-0.4,0.3-0.9,0.4-1.4c0.1-0.5,0.1-1,0.1-1.4
				C82.5,285.8,82.4,285.3,82.3,284.8z"/>
		</g>
	</g>
	<g>
		<g>
			<path fill="#8B8B8A" d="M148.7,175.2c-0.1-0.5-0.2-0.9-0.4-1.4c-0.2-0.5-0.4-0.9-0.7-1.3c-0.3-0.4-0.6-0.8-0.9-1.1
				c-1.7-1.7-4.3-2.5-6.7-2c-0.5,0.1-0.9,0.2-1.4,0.4c-0.5,0.2-0.9,0.4-1.3,0.7c-0.4,0.3-0.8,0.6-1.1,0.9s-0.7,0.7-0.9,1.1
				c-0.3,0.4-0.5,0.8-0.7,1.3c-0.2,0.4-0.3,0.9-0.4,1.4s-0.1,1-0.1,1.4c0,0.5,0.1,1,0.1,1.5c0.1,0.5,0.2,0.9,0.4,1.4
				c0.2,0.4,0.4,0.9,0.7,1.3c0.3,0.4,0.6,0.8,0.9,1.1s0.7,0.7,1.1,0.9c0.4,0.3,0.8,0.5,1.3,0.7c0.4,0.2,0.9,0.3,1.4,0.4
				s1,0.1,1.4,0.1c1.9,0,3.9-0.8,5.2-2.2c0.3-0.3,0.7-0.7,0.9-1.1c0.3-0.4,0.5-0.8,0.7-1.3c0.2-0.5,0.3-0.9,0.4-1.4
				c0.1-0.5,0.1-1,0.1-1.5C148.8,176.2,148.8,175.7,148.7,175.2z"/>
		</g>
	</g>
</g>
</svg>
