<?xml version="1.0" encoding="utf-8"?>
<!-- Generator: Adobe Illustrator 18.1.1, SVG Export Plug-In . SVG Version: 6.00 Build 0)  -->
<svg version="1.1" id="Capa_1" xmlns="http://www.w3.org/2000/svg" xmlns:xlink="http://www.w3.org/1999/xlink" x="0px" y="0px"
	 viewBox="0 0 400 400" enable-background="new 0 0 400 400" xml:space="preserve">
<rect fill="none" width="400" height="400"/>
<path display="none" fill="#8B8B8A" d="M390.2,152.5c0-0.1,0.1-0.2,0.1-0.3c0-1.8-0.6-3.4-1.5-4.8c-0.1-0.2,0-0.4-0.1-0.5
	L310.3,32.4c-0.2-0.2-0.5-0.4-0.7-0.6c-0.6-0.7-1.3-1.4-2.1-1.9c-0.4-0.3-0.9-0.5-1.3-0.7c-0.3-0.1-0.6-0.4-0.9-0.5
	c-0.6-0.2-1.2-0.1-1.8-0.2c-0.3,0-0.6-0.2-1-0.2H100c-0.3,0-0.6,0.2-1,0.2c-0.6,0.1-1.3,0-1.9,0.2c-0.3,0.1-0.5,0.3-0.8,0.5
	c-0.5,0.2-0.9,0.5-1.3,0.7c-0.8,0.5-1.5,1.1-2,1.8c-0.2,0.2-0.5,0.3-0.7,0.6L11.5,146.8c-0.1,0.2-0.1,0.4-0.2,0.5
	c-0.9,1.5-1.6,3.1-1.6,4.9c0,0.1,0.1,0.2,0.1,0.3c0,0.2,0.1,0.4,0.1,0.6c0.2,1.8,0.9,3.5,2,4.9c0.1,0.1,0.1,0.3,0.2,0.4l185,209.7
	c0.3,0.4,0.8,0.5,1.1,0.8c0.4,0.3,0.7,0.5,1.1,0.8c1.5,0.9,3.1,1.6,4.9,1.6c0,0,0,0,0.1,0c0,0,0,0,0,0c1.8,0,3.4-0.7,4.9-1.7
	c0.4-0.2,0.7-0.5,1-0.8c0.4-0.3,0.8-0.5,1.1-0.9L388,158.3c0.1-0.1,0.1-0.4,0.2-0.5c1-1.3,1.7-2.9,1.8-4.7
	C390.1,152.9,390.2,152.7,390.2,152.5z M96.8,58.6l27.1,84.1H37.5L96.8,58.6z M255.1,161.7L204,330.2l-54.2-168.6H255.1z M153,142.8
	l48.6-86.4l52.4,86.4H153z M218,47.2h71.7L265.9,126L218,47.2z M139.2,128.7L113,47.2h72.1L139.2,128.7z M129.9,161.7l51.5,160.1
	L40.2,161.7H129.9z M274.8,161.7h85.7l-133.9,159L274.8,161.7z M280.5,142.8l25.3-83.5l57.1,83.5H280.5z"/>
<path fill="#8B8B8A" d="M389.7,235.9h-23.4c-2.6-40.4-19.6-78-48.5-106.9c-24.2-24.2-54.6-40.1-87.6-46.1c1.9-4.2,3-8.9,3-13.9
	c0-18.4-15-33.4-33.4-33.4s-33.4,15-33.4,33.4c0,4.9,1.1,9.6,3,13.9c-33,6-63.4,21.9-87.6,46.1C53,157.9,36,195.5,33.4,235.9H10
	v22.2h27.2l22.2,44.5h102.7l-14.8,44.5H122v22.2h155.7v-22.2h-25.4l-14.8-44.5h102.7l22.2-44.5h27.2V235.9z M188.7,69
	c0-6.1,5-11.1,11.1-11.1S211,62.9,211,69c0,6.1-5,11.1-11.1,11.1S188.7,75.1,188.7,69z M199.9,102.4c76,0,138.5,58.9,144.2,133.5
	H55.7C61.4,161.3,123.9,102.4,199.9,102.4z M228.9,347.1h-58.1l14.8-44.5h28.5L228.9,347.1z M326.5,280.4H73.2l-11.1-22.2h275.5
	L326.5,280.4z"/>
</svg>
