<?xml version="1.0" encoding="utf-8"?>
<!-- Generator: Adobe Illustrator 18.1.1, SVG Export Plug-In . SVG Version: 6.00 Build 0)  -->
<svg version="1.1" id="Capa_1" xmlns="http://www.w3.org/2000/svg" xmlns:xlink="http://www.w3.org/1999/xlink" x="0px" y="0px"
	 viewBox="0 0 400 400" enable-background="new 0 0 400 400" xml:space="preserve">
<rect fill="none" width="400" height="400"/>
<path display="none" fill="#8B8B8A" d="M390.2,152.5c0-0.1,0.1-0.2,0.1-0.3c0-1.8-0.6-3.4-1.5-4.8c-0.1-0.2,0-0.4-0.1-0.5
	L310.3,32.4c-0.2-0.2-0.5-0.4-0.7-0.6c-0.6-0.7-1.3-1.4-2.1-1.9c-0.4-0.3-0.9-0.5-1.3-0.7c-0.3-0.1-0.6-0.4-0.9-0.5
	c-0.6-0.2-1.2-0.1-1.8-0.2c-0.3,0-0.6-0.2-1-0.2H100c-0.3,0-0.6,0.2-1,0.2c-0.6,0.1-1.3,0-1.9,0.2c-0.3,0.1-0.5,0.3-0.8,0.5
	c-0.5,0.2-0.9,0.5-1.3,0.7c-0.8,0.5-1.5,1.1-2,1.8c-0.2,0.2-0.5,0.3-0.7,0.6L11.5,146.8c-0.1,0.2-0.1,0.4-0.2,0.5
	c-0.9,1.5-1.6,3.1-1.6,4.9c0,0.1,0.1,0.2,0.1,0.3c0,0.2,0.1,0.4,0.1,0.6c0.2,1.8,0.9,3.5,2,4.9c0.1,0.1,0.1,0.3,0.2,0.4l185,209.7
	c0.3,0.4,0.8,0.5,1.1,0.8c0.4,0.3,0.7,0.5,1.1,0.8c1.5,0.9,3.1,1.6,4.9,1.6c0,0,0,0,0.1,0c0,0,0,0,0,0c1.8,0,3.4-0.7,4.9-1.7
	c0.4-0.2,0.7-0.5,1-0.8c0.4-0.3,0.8-0.5,1.1-0.9L388,158.3c0.1-0.1,0.1-0.4,0.2-0.5c1-1.3,1.7-2.9,1.8-4.7
	C390.1,152.9,390.2,152.7,390.2,152.5z M96.8,58.6l27.1,84.1H37.5L96.8,58.6z M255.1,161.7L204,330.2l-54.2-168.6H255.1z M153,142.8
	l48.6-86.4l52.4,86.4H153z M218,47.2h71.7L265.9,126L218,47.2z M139.2,128.7L113,47.2h72.1L139.2,128.7z M129.9,161.7l51.5,160.1
	L40.2,161.7H129.9z M274.8,161.7h85.7l-133.9,159L274.8,161.7z M280.5,142.8l25.3-83.5l57.1,83.5H280.5z"/>
<path display="none" fill="#8B8B8A" d="M389.7,235.9h-23.4c-2.6-40.4-19.6-78-48.5-106.9c-24.2-24.2-54.6-40.1-87.6-46.1
	c1.9-4.2,3-8.9,3-13.9c0-18.4-15-33.4-33.4-33.4s-33.4,15-33.4,33.4c0,4.9,1.1,9.6,3,13.9c-33,6-63.4,21.9-87.6,46.1
	C53,157.9,36,195.5,33.4,235.9H10v22.2h27.2l22.2,44.5h102.7l-14.8,44.5H122v22.2h155.7v-22.2h-25.4l-14.8-44.5h102.7l22.2-44.5
	h27.2V235.9z M188.7,69c0-6.1,5-11.1,11.1-11.1S211,62.9,211,69c0,6.1-5,11.1-11.1,11.1S188.7,75.1,188.7,69z M199.9,102.4
	c76,0,138.5,58.9,144.2,133.5H55.7C61.4,161.3,123.9,102.4,199.9,102.4z M228.9,347.1h-58.1l14.8-44.5h28.5L228.9,347.1z
	 M326.5,280.4H73.2l-11.1-22.2h275.5L326.5,280.4z"/>
<g display="none">
	<g display="inline">
		<g>
			<path fill="#8B8B8A" d="M353.1,215c-4.1,0-7.4,3.3-7.4,7.4c0,4.4,3.8,7.8,8.2,7.4c3.8-0.4,6.7-3.6,6.7-7.4
				C360.5,218.3,357.2,215,353.1,215z"/>
		</g>
	</g>
	<g display="inline">
		<g>
			<path fill="#8B8B8A" d="M200.1,185.3c-4.1,0-7.4,3.3-7.4,7.4c0,3.8,2.9,7,6.7,7.4c4.4,0.4,8.2-3,8.2-7.4
				C207.5,188.6,204.2,185.3,200.1,185.3z"/>
		</g>
	</g>
	<g display="inline">
		<g>
			<path fill="#8B8B8A" d="M200.1,155.6c-53.2,0-96.5,43.3-96.5,96.5s43.3,96.5,96.5,96.5s96.5-43.3,96.5-96.5
				S253.3,155.6,200.1,155.6z M200.1,333.8c-45,0-81.7-36.6-81.7-81.7s36.6-81.7,81.7-81.7s81.7,36.6,81.7,81.7
				S245.1,333.8,200.1,333.8z"/>
		</g>
	</g>
	<g display="inline">
		<g>
			<path fill="#8B8B8A" d="M232.5,193.6c-3.6-2-8.1-0.7-10.1,2.9c-2,3.6-0.7,8.1,2.9,10.1c16.6,9.2,26.8,26.6,26.8,45.5
				c0,4.1,3.3,7.4,7.4,7.4c4.1,0,7.4-3.3,7.4-7.4C266.9,227.8,253.7,205.4,232.5,193.6z"/>
		</g>
	</g>
	<g display="inline">
		<g>
			<path fill="#8B8B8A" d="M367.9,140.7h-7.4v-22.3c0-4.1-3.3-7.4-7.4-7.4h-29.7c-4.1,0-7.4,3.3-7.4,7.4v22.3h-56.4
				c-7.1-3.8-14.6-6.9-22.3-9.3V111h22.3c12.3,0,22.3-10,22.3-22.3V44.2c0-12.3-10-22.3-22.3-22.3H140.7c-12.3,0-22.3,10-22.3,22.3
				v44.6c0,12.3,10,22.3,22.3,22.3H163v20.4c-7.7,2.4-15.2,5.5-22.3,9.3c-17.7,0-39.8,0-56.4,0v-22.3c0-4.1-3.3-7.4-7.4-7.4H47.1
				c-4.1,0-7.4,3.3-7.4,7.4v22.3h-7.4C20,140.7,10,150.7,10,163c0,7.3,0,170.3,0,178.2c0,12.3,10,22.3,22.3,22.3h108.4
				c18.2,9.7,38.7,14.9,59.4,14.9s41.2-5.1,59.4-14.9h108.4c12.3,0,22.3-10,22.3-22.3c0-7.3,0-170.3,0-178.2
				C390.2,150.7,380.2,140.7,367.9,140.7z M330.8,125.9h14.9v14.9h-14.9V125.9z M140.7,96.2c-4.1,0-7.4-3.3-7.4-7.4V44.2
				c0-4.1,3.3-7.4,7.4-7.4h118.8c4.1,0,7.4,3.3,7.4,7.4v44.6c0,4.1-3.3,7.4-7.4,7.4H140.7z M222.4,111v16.8c-7.3-1.3-14.8-2-22.3-2
				s-15,0.7-22.3,2V111H222.4z M54.6,125.9h14.9v14.9H54.6V125.9z M24.9,163c0-4.1,3.3-7.5,7.4-7.5h86.5C108.7,164,100,174,93,185.3
				H24.9V163z M24.9,200H85c-7.3,16.2-11.2,34.1-11.2,52.1c0,18,3.8,35.7,11.2,52H24.9V200z M32.3,348.6c-4.1,0-7.4-3.3-7.4-7.4
				v-22.3H93c7,11.2,15.7,21.2,25.8,29.7H32.3z M200.1,363.5c-61.6,0-111.4-49.9-111.4-111.4c0-61.2,49.6-111.4,111.4-111.4
				c61.5,0,111.4,49.9,111.4,111.4C311.5,313.8,261.4,363.5,200.1,363.5z M375.4,341.2c0,4.1-3.3,7.4-7.4,7.4h-86.5
				c10.1-8.5,18.8-18.5,25.8-29.7h68.1V341.2z M375.4,304.1h-60.2c7.3-16.2,11.2-34,11.2-52s-3.8-35.7-11.2-52h60.2V304.1z
				 M375.4,185.3h-68.1c-7-11.2-15.7-21.2-25.8-29.7h86.5c4.1,0,7.4,3.3,7.4,7.4V185.3z"/>
		</g>
	</g>
	<g display="inline">
		<g>
			<path fill="#8B8B8A" d="M244.7,51.6c-4.1,0-7.4,3.3-7.4,7.4v14.9c0,4.1,3.3,7.4,7.4,7.4c4.1,0,7.4-3.3,7.4-7.4V59
				C252.1,54.9,248.8,51.6,244.7,51.6z"/>
		</g>
	</g>
</g>
<g display="none">
	<g display="inline">
		<path fill="#8B8B8A" d="M347.5,15.8c-8.6-6-19.6-7.4-29.4-3.8L156.4,71.5c-12.5,4.6-21,16.7-21,30.1v181.9
			c-9.2-6.5-21.1-9.1-34-7.3c-14.6,2.1-29.1,9.7-40.8,21.3c-11.7,11.7-19.2,26.1-21.3,40.8c-2.2,15.6,1.9,29.5,11.6,39.2
			c8,8,18.9,12.2,31.2,12.2c2.6,0,5.3-0.2,8.1-0.6c14.6-2.1,29.1-9.7,40.8-21.3c11.7-11.7,19.2-26.1,21.3-40.8
			c0.3-2.3,0.5-4.6,0.6-6.8c0-0.1,0-157.8,0-157.8l190.9-70.3v114.6c-9.2-6.5-21.1-9.1-34-7.3c-14.6,2.1-29.1,9.7-40.8,21.3
			s-19.2,26.1-21.3,40.8c-2.2,15.6,1.9,29.5,11.6,39.2c8,8,18.9,12.2,31.2,12.2c2.6,0,5.3-0.2,8.1-0.6c14.6-2.1,29.1-9.7,40.8-21.3
			c11.7-11.7,19.2-26.1,21.3-40.8c0.3-2.3,0.6-208.3,0.6-208.3C361.2,31.6,356.1,21.8,347.5,15.8z M135.4,319.3
			c0,1.7-0.1,3.5-0.4,5.3c-1.6,10.9-7.4,21.9-16.4,30.9c-9,9-20,14.8-30.9,16.4c-10,1.4-18.7-1-24.4-6.7c-5.8-5.8-8.1-14.4-6.7-24.4
			c1.6-10.9,7.4-21.9,16.4-30.9c9-9,20-14.8,30.9-16.4c1.9-0.3,3.7-0.4,5.5-0.4c7.7,0,14.2,2.5,18.9,7.1c4.7,4.7,7.1,11.2,7.1,18.8
			L135.4,319.3L135.4,319.3z M343.8,73.7L152.9,144v-42.4c0-6.1,3.8-11.6,9.6-13.7l161.6-59.5c4.6-1.7,9.4-1,13.4,1.7
			c4,2.8,6.3,7.2,6.3,12V73.7z M343.8,242.6c0,1.7-0.1,3.5-0.4,5.4c-1.6,10.9-7.4,21.9-16.4,30.9c-9,9-20,14.8-30.9,16.4
			c-10,1.4-18.7-1-24.4-6.7s-8.1-14.4-6.7-24.4c1.6-10.9,7.4-21.9,16.4-30.9c9-9,20-14.8,30.9-16.4c1.9-0.3,3.7-0.4,5.5-0.4
			c7.7,0,14.2,2.5,18.9,7.1c4.7,4.7,7.1,11.2,7.1,18.8L343.8,242.6L343.8,242.6z"/>
	</g>
</g>
<g display="none">
	<g display="inline">
		<g>
			<path fill="#8B8B8A" d="M322.5,165.8v-42.3c0-18.4-15-33.4-33.4-33.4H188.9v52.7H70.1v22.3h-4.5C35,165.1,10,190,10,220.7
				c0,18.4,15,33.4,33.4,33.4h13c4.6,13,17,22.3,31.5,22.3s26.9-9.3,31.5-22.3h161.2c4.6,13,17,22.3,31.5,22.3s26.9-9.3,31.5-22.3
				H390V243C390,203.6,360.5,170.9,322.5,165.8z M198.4,98.3h48.2v44.5h-48.2V98.3z M87.9,266.6c-12.9,0-23.5-10.5-23.5-23.5
				s10.5-23.5,23.5-23.5s23.5,10.5,23.5,23.5S100.8,266.6,87.9,266.6z M120.3,244.2c0-22.5-17.9-34.6-32.4-34.6s-26.9,9.3-31.5,22.3
				c-1.2,4.1-1.8,7.9-1.5,11.2l-15.3,0c-15.2-2.3-19.2-16.1-19.2-22.2c0-18.4,12.4-45,46.2-45h15.8c27.2-1.1,53.2,18.8,68.1,33.3
				c18.6,18,66.6,31.1,83.5,34.7L120.3,244.2z M235.3,229.7l-26.9-5.3c-21.3-4.2-40.7-14.6-56-29.9c-16.3-16.3-37.3-26.3-59.9-28.8
				l-11.5-1v-11.8l174.8-0.4V98.1h33.4c9.5-0.7,26.6,8.4,26.5,25.8l-0.1,41.2C269.5,164.2,241,196.9,235.3,229.7z M312.4,266.3
				c-12.9,0-23.3-10.5-23.3-23.3c0-12.9,10.5-23.3,23.3-23.3c12.9,0,23.3,10.5,23.3,23.3C335.7,255.9,325.3,266.3,312.4,266.3z
				 M344,244.3c0-22.7-17.4-34.6-31.9-34.6c-14.5,0-32.6,12.3-32.3,34.2l-37.6,0.1c5.7-56.7,45.9-70.2,70.6-70.2
				c35.4,0,68.8,28.2,68.8,70.5H344z"/>
		</g>
	</g>
	<g display="inline">
		<g>
			<polygon fill="#8B8B8A" points="312.1,276.4 87.9,276.4 10,276.4 10,287.7 390,287.7 390,276.4 			"/>
		</g>
	</g>
</g>
<g display="none">
	<g display="inline">
		<g>
			<path fill="#8B8B8A" d="M192.4,73.9h-65 M272.2,73.9h-65 M112.6,73.9H89.8c-12.2,0-22.2,10-22.2,22.2v28.3v44.9H55
				c-12.2,0-22.2,10-22.2,22.2V224v79.3H17.4c-4.1,0-7.4,3.3-7.4,7.4c0,4.1,3.3,7.4,7.4,7.4h22.8h319.2h22.8c4.1,0,7.4-3.3,7.4-7.4
				c0-4.1-3.3-7.4-7.4-7.4h-15.4V224v-32.5c0-12.2-10-22.2-22.2-22.2H332v-44.9V96.1c0-12.2-10-22.2-22.2-22.2H287 M89.8,88.8h220
				c4.1,0,7.4,3.3,7.4,7.4v23.3c-3.3,1-6.8,1.5-10.9,1.5c-11.1,0-16.1-3.4-22.5-7.6c-7.1-4.7-15.2-10.1-30.7-10.1
				c-15.5,0-23.6,5.4-30.7,10.1c-6.4,4.3-11.4,7.6-22.5,7.6s-16.1-3.4-22.5-7.6c-7.1-4.7-15.2-10.1-30.7-10.1
				c-15.5,0-23.6,5.4-30.7,10.1c-6.4,4.3-11.4,7.6-22.5,7.6c-4.2,0-7.7-0.5-10.9-1.5V96.1h0C82.5,92.1,85.8,88.8,89.8,88.8z
				 M352,303.3H47.6V232c6.3,1.2,10.3,3.8,15.1,7c7.1,4.7,15.2,10.1,30.7,10.1c15.5,0,23.6-5.4,30.7-10.1c6.4-4.3,11.4-7.6,22.5-7.6
				c11.1,0,16.1,3.4,22.5,7.6c7.1,4.7,15.2,10.1,30.7,10.1c15.5,0,23.6-5.4,30.7-10.1c6.4-4.3,11.4-7.6,22.5-7.6
				c11.1,0,16.1,3.4,22.5,7.6c7.1,4.7,15.2,10.1,30.7,10.1c15.5,0,23.6-5.4,30.7-10.1c4.8-3.2,8.8-5.8,15.1-7V303.3z M352,217
				c-10.9,1.4-17.4,5.7-23.3,9.7c-6.4,4.3-11.4,7.6-22.5,7.6s-16.1-3.4-22.5-7.6c-7.1-4.7-15.2-10.1-30.7-10.1
				c-15.5,0-23.6,5.4-30.7,10.1c-6.4,4.3-11.4,7.6-22.5,7.6c-11.1,0-16.1-3.4-22.5-7.6c-7.1-4.7-15.2-10.1-30.7-10.1
				c-15.5,0-23.6,5.4-30.7,10.1c-6.4,4.3-11.4,7.6-22.5,7.6c-11.1,0-16.1-3.4-22.5-7.6c-5.9-3.9-12.4-8.3-23.3-9.7v-25.5
				c0-4.1,3.3-7.4,7.4-7.4h56.9c4.1,0,7.4-3.3,7.4-7.4s-3.3-7.4-7.4-7.4H82.5v-34.6c3.4,0.7,7,1,10.9,1c15.5,0,23.6-5.4,30.7-10.1
				c6.4-4.3,11.4-7.6,22.5-7.6c11.1,0,16.1,3.4,22.5,7.6c7.1,4.7,15.2,10.1,30.7,10.1c15.5,0,23.6-5.4,30.7-10.1
				c6.4-4.3,11.4-7.6,22.5-7.6c11.1,0,16.1,3.4,22.5,7.6c7.1,4.7,15.2,10.1,30.7,10.1c3.9,0,7.5-0.3,10.9-1v34.6H171
				c-4.1,0-7.4,3.3-7.4,7.4c0,4.1,3.3,7.4,7.4,7.4h173.7c4.1,0,7.4,3.3,7.4,7.4L352,217L352,217z"/>
		</g>
	</g>
	<g display="inline">
		<g>
			<path fill="#8B8B8A" d="M258.1,145.9c-0.1-0.5-0.2-0.9-0.4-1.4c-0.2-0.4-0.4-0.9-0.7-1.3c-0.3-0.4-0.6-0.8-0.9-1.1
				c-0.3-0.3-0.7-0.7-1.1-0.9c-0.4-0.3-0.8-0.5-1.3-0.7c-0.5-0.2-0.9-0.3-1.4-0.4c-1-0.2-1.9-0.2-2.9,0c-0.5,0.1-0.9,0.2-1.4,0.4
				c-0.5,0.2-0.9,0.4-1.3,0.7c-0.4,0.3-0.8,0.6-1.1,0.9c-0.3,0.3-0.7,0.7-0.9,1.1c-0.3,0.4-0.5,0.8-0.7,1.3
				c-0.2,0.5-0.3,0.9-0.4,1.4c-0.1,0.5-0.1,1-0.1,1.5c0,0.5,0.1,1,0.1,1.4c0.1,0.5,0.2,0.9,0.4,1.4c0.2,0.4,0.4,0.9,0.7,1.3
				c0.3,0.4,0.6,0.8,0.9,1.1c0.3,0.3,0.7,0.7,1.1,0.9c0.4,0.3,0.8,0.5,1.3,0.7c0.4,0.2,0.9,0.3,1.4,0.4s1,0.1,1.4,0.1s1-0.1,1.5-0.1
				c0.5-0.1,0.9-0.2,1.4-0.4c0.4-0.2,0.9-0.4,1.3-0.7c0.4-0.3,0.8-0.6,1.1-0.9c0.3-0.3,0.7-0.7,0.9-1.1c0.3-0.4,0.5-0.8,0.7-1.3
				c0.2-0.4,0.3-0.9,0.4-1.4c0.1-0.5,0.1-1,0.1-1.4C258.2,146.9,258.2,146.4,258.1,145.9z"/>
		</g>
	</g>
	<g display="inline">
		<g>
			<path fill="#8B8B8A" d="M161.3,135.8c-0.1-0.5-0.2-0.9-0.4-1.4c-0.2-0.4-0.4-0.9-0.7-1.3c-0.3-0.4-0.6-0.8-0.9-1.1
				c-0.3-0.3-0.7-0.7-1.1-0.9c-0.4-0.3-0.8-0.5-1.3-0.7c-0.4-0.2-0.9-0.3-1.4-0.4c-1-0.2-1.9-0.2-2.9,0c-0.5,0.1-0.9,0.2-1.4,0.4
				c-0.4,0.2-0.9,0.4-1.3,0.7c-0.4,0.3-0.8,0.6-1.1,0.9c-0.3,0.3-0.6,0.7-0.9,1.1c-0.3,0.4-0.5,0.8-0.7,1.3
				c-0.2,0.4-0.3,0.9-0.4,1.4c-0.1,0.5-0.1,1-0.1,1.5c0,0.5,0,1,0.1,1.4c0.1,0.5,0.2,0.9,0.4,1.4c0.2,0.4,0.4,0.9,0.7,1.3
				c0.3,0.4,0.6,0.8,0.9,1.1c0.3,0.3,0.7,0.6,1.1,0.9c0.4,0.3,0.8,0.5,1.3,0.7c0.4,0.2,0.9,0.3,1.4,0.4c0.5,0.1,1,0.1,1.5,0.1
				c0.5,0,1-0.1,1.4-0.1c0.5-0.1,0.9-0.2,1.4-0.4c0.4-0.2,0.9-0.4,1.3-0.7c0.4-0.3,0.8-0.6,1.1-0.9c0.3-0.3,0.6-0.7,0.9-1.1
				c0.3-0.4,0.5-0.8,0.7-1.3c0.2-0.4,0.3-0.9,0.4-1.4c0.1-0.5,0.1-1,0.1-1.4C161.4,136.8,161.4,136.3,161.3,135.8z"/>
		</g>
	</g>
	<g display="inline">
		<g>
			<path fill="#8B8B8A" d="M162,262.7c-0.1-0.5-0.2-0.9-0.4-1.4c-0.2-0.4-0.4-0.9-0.7-1.3c-0.3-0.4-0.6-0.8-0.9-1.1
				s-0.7-0.7-1.1-0.9c-0.4-0.3-0.8-0.5-1.3-0.7c-0.5-0.2-0.9-0.3-1.4-0.4c-1-0.2-1.9-0.2-2.9,0c-0.5,0.1-0.9,0.2-1.4,0.4
				c-0.5,0.2-0.9,0.4-1.3,0.7c-0.4,0.3-0.8,0.6-1.1,0.9c-0.3,0.3-0.7,0.7-0.9,1.1c-0.3,0.4-0.5,0.8-0.7,1.3
				c-0.2,0.4-0.3,0.9-0.4,1.4c-0.1,0.5-0.1,1-0.1,1.4c0,0.5,0.1,1,0.1,1.5c0.1,0.5,0.2,0.9,0.4,1.4c0.2,0.4,0.4,0.9,0.7,1.3
				c0.3,0.4,0.6,0.8,0.9,1.1c0.3,0.3,0.7,0.6,1.1,0.9c0.4,0.3,0.8,0.5,1.3,0.7c0.4,0.2,0.9,0.3,1.4,0.4c0.5,0.1,1,0.1,1.4,0.1
				c0.5,0,1-0.1,1.5-0.1c0.5-0.1,0.9-0.2,1.4-0.4c0.4-0.2,0.9-0.4,1.3-0.7c0.4-0.3,0.8-0.6,1.1-0.9c0.3-0.3,0.7-0.7,0.9-1.1
				c0.3-0.4,0.5-0.8,0.7-1.3c0.2-0.4,0.3-0.9,0.4-1.4c0.1-0.5,0.1-1,0.1-1.5C162.1,263.6,162.1,263.2,162,262.7z"/>
		</g>
	</g>
	<g display="inline">
		<g>
			<path fill="#8B8B8A" d="M247.7,284.8c-0.1-0.5-0.2-0.9-0.4-1.4c-0.2-0.4-0.4-0.9-0.7-1.3c-0.3-0.4-0.6-0.8-0.9-1.1
				c-0.3-0.3-0.7-0.6-1.1-0.9c-0.4-0.3-0.8-0.5-1.3-0.7c-0.4-0.2-0.9-0.3-1.4-0.4c-1-0.2-1.9-0.2-2.9,0c-0.5,0.1-0.9,0.2-1.4,0.4
				c-0.4,0.2-0.9,0.4-1.3,0.7c-0.4,0.3-0.8,0.6-1.1,0.9c-0.3,0.3-0.7,0.7-0.9,1.1c-0.3,0.4-0.5,0.8-0.7,1.3
				c-0.2,0.4-0.3,0.9-0.4,1.4c-0.1,0.5-0.1,1-0.1,1.5c0,0.5,0,1,0.1,1.4c0.1,0.5,0.2,0.9,0.4,1.4c0.2,0.4,0.4,0.9,0.7,1.3
				c0.3,0.4,0.6,0.8,0.9,1.1c0.3,0.3,0.7,0.7,1.1,0.9c0.4,0.3,0.8,0.5,1.3,0.7c0.5,0.2,0.9,0.3,1.4,0.4c0.5,0.1,1,0.1,1.5,0.1
				c1.9,0,3.9-0.8,5.2-2.2c0.3-0.3,0.7-0.7,0.9-1.1c0.3-0.4,0.5-0.8,0.7-1.3c0.2-0.4,0.3-0.9,0.4-1.4c0.1-0.5,0.1-1,0.1-1.4
				C247.9,285.8,247.8,285.3,247.7,284.8z"/>
		</g>
	</g>
	<g display="inline">
		<g>
			<path fill="#8B8B8A" d="M331.8,267.1c-0.1-0.5-0.2-0.9-0.4-1.4s-0.4-0.9-0.7-1.3c-0.3-0.4-0.6-0.8-0.9-1.1
				c-1.4-1.4-3.3-2.2-5.2-2.2c-2,0-3.9,0.8-5.2,2.2c-0.3,0.3-0.6,0.7-0.9,1.1c-0.3,0.4-0.5,0.8-0.7,1.3c-0.2,0.4-0.3,0.9-0.4,1.4
				c-0.1,0.5-0.1,1-0.1,1.4c0,0.5,0,1,0.1,1.5c0.1,0.5,0.2,0.9,0.4,1.4c0.2,0.4,0.4,0.9,0.7,1.3c0.3,0.4,0.6,0.8,0.9,1.1
				c0.3,0.3,0.7,0.6,1.1,0.9c0.4,0.3,0.8,0.5,1.3,0.7c0.4,0.2,0.9,0.3,1.4,0.4c0.5,0.1,1,0.1,1.5,0.1c1.9,0,3.9-0.8,5.2-2.2
				c0.3-0.3,0.7-0.7,0.9-1.1c0.3-0.4,0.5-0.8,0.7-1.3c0.2-0.5,0.3-0.9,0.4-1.4c0.1-0.5,0.1-1,0.1-1.5
				C332,268.1,331.9,267.6,331.8,267.1z"/>
		</g>
	</g>
	<g display="inline">
		<g>
			<path fill="#8B8B8A" d="M82.3,284.8c-0.1-0.5-0.2-0.9-0.4-1.4c-0.2-0.4-0.4-0.9-0.7-1.3c-0.3-0.4-0.6-0.8-0.9-1.1
				c-0.3-0.3-0.7-0.6-1.1-0.9c-0.4-0.3-0.8-0.5-1.3-0.7c-0.4-0.2-0.9-0.3-1.4-0.4c-2.4-0.5-5,0.3-6.7,2c-0.3,0.3-0.7,0.7-0.9,1.1
				c-0.3,0.4-0.5,0.8-0.7,1.3s-0.3,0.9-0.4,1.4c-0.1,0.5-0.1,1-0.1,1.5c0,0.5,0,1,0.1,1.4c0.1,0.5,0.2,0.9,0.4,1.4s0.4,0.9,0.7,1.3
				c0.3,0.4,0.6,0.8,0.9,1.1c1.4,1.4,3.3,2.2,5.2,2.2c0.5,0,1-0.1,1.4-0.1c0.5-0.1,0.9-0.2,1.4-0.4c0.4-0.2,0.9-0.4,1.3-0.7
				c0.4-0.3,0.8-0.6,1.1-0.9c0.3-0.3,0.7-0.7,0.9-1.1c0.3-0.4,0.5-0.8,0.7-1.3c0.2-0.4,0.3-0.9,0.4-1.4c0.1-0.5,0.1-1,0.1-1.4
				C82.5,285.8,82.4,285.3,82.3,284.8z"/>
		</g>
	</g>
	<g display="inline">
		<g>
			<path fill="#8B8B8A" d="M148.7,175.2c-0.1-0.5-0.2-0.9-0.4-1.4c-0.2-0.5-0.4-0.9-0.7-1.3c-0.3-0.4-0.6-0.8-0.9-1.1
				c-1.7-1.7-4.3-2.5-6.7-2c-0.5,0.1-0.9,0.2-1.4,0.4c-0.5,0.2-0.9,0.4-1.3,0.7c-0.4,0.3-0.8,0.6-1.1,0.9s-0.7,0.7-0.9,1.1
				c-0.3,0.4-0.5,0.8-0.7,1.3c-0.2,0.4-0.3,0.9-0.4,1.4s-0.1,1-0.1,1.4c0,0.5,0.1,1,0.1,1.5c0.1,0.5,0.2,0.9,0.4,1.4
				c0.2,0.4,0.4,0.9,0.7,1.3c0.3,0.4,0.6,0.8,0.9,1.1s0.7,0.7,1.1,0.9c0.4,0.3,0.8,0.5,1.3,0.7c0.4,0.2,0.9,0.3,1.4,0.4
				s1,0.1,1.4,0.1c1.9,0,3.9-0.8,5.2-2.2c0.3-0.3,0.7-0.7,0.9-1.1c0.3-0.4,0.5-0.8,0.7-1.3c0.2-0.5,0.3-0.9,0.4-1.4
				c0.1-0.5,0.1-1,0.1-1.5C148.8,176.2,148.8,175.7,148.7,175.2z"/>
		</g>
	</g>
</g>
<path display="none" fill="#8B8B8A" d="M357.7,84.3C357.7,84.3,357.7,84.3,357.7,84.3c-10.6,0.1-20.7,1.7-30.1,4.9
	c-2-7.8-4.7-15.5-8.1-22.8c-0.8-1.8-2.3-3.2-4.2-3.8c-1.8-0.7-3.9-0.6-5.7,0.2c-7.3,3.4-14.3,7.5-20.9,12.2
	c-4.9-7.8-10.9-15-18.2-21.5c-2.3-11.1-5.4-22.1-9.3-32.6c-1.4-3.8-5.7-5.8-9.5-4.4c-10.9,4.1-20.7,9.6-29.3,16.5
	c-5-7.4-10.8-14.4-17.1-20.7c-1.4-1.4-3.3-2.2-5.2-2.2h0c-2,0-3.8,0.8-5.2,2.2c-6.3,6.3-12.1,13.3-17.1,20.7
	c-8.6-6.9-18.4-12.4-29.3-16.4c-3.8-1.4-8.1,0.5-9.5,4.4c-3.9,10.6-7,21.8-9.3,33.2c-6.9,6.3-12.8,13.3-17.5,20.9
	c-6.6-4.7-13.5-8.8-20.9-12.2c-1.8-0.8-3.8-0.9-5.7-0.2c-1.8,0.7-3.3,2.1-4.2,3.8c-3.4,7.3-6.1,15-8.1,22.8
	C64,86,53.9,84.4,43.3,84.3c0,0,0,0,0,0c-4.1,0-7.4,3.3-7.4,7.4c-0.2,35.9,9.2,72.5,25.9,100.4c17.1,28.6,40.6,46.2,68.5,51.6
	l18.7,51.4c0.1,0.4,0.3,0.8,0.5,1.1l15.9,43.7l16.1,44.3c1.1,2.9,3.8,4.9,7,4.9h24.1c3.1,0,5.9-1.9,7-4.9l16.2-44.3l16.4-44.9l0,0
	l18.7-51.4c27.9-5.4,51.3-23,68.5-51.6c16.7-27.9,26.2-64.5,25.9-100.4C365.1,87.6,361.8,84.3,357.7,84.3z M309,79.6
	c1.9,5,3.5,10.2,4.8,15.4c-4.6,2.4-9,5.3-13.3,8.6c-1.2-5.3-2.9-10.4-4.9-15.3C299.8,85.1,304.3,82.2,309,79.6z M263.7,160.7
	c6.7-15.9,10-33,11.1-50.2c0.6-10.1,0.5-20.2-0.4-30.2c2.2,3.3,4.1,6.7,5.7,10.1c4.1,8.6,6.6,18,7.6,27.4c0.3,2.6,0.5,5.3,0.6,7.9
	c0.5,15.8-2.6,33-8.6,50c-6.1,17.2-15.3,34.2-26.5,49.2c-0.6,0.8-1.2,1.6-1.8,2.4c-1-1-2-2.1-3-3.2c-6-6.8-10.8-14.3-14.2-22.6
	C247.3,190.6,257.2,176.3,263.7,160.7z M239,39.4c3.5-2.3,7.2-4.3,11-6.1c3.2,9.8,5.7,20,7.4,30.2c0.1,0.5,0.2,1.1,0.3,1.6
	c1.8,11.4,3.7,29.5,2,49.2c-0.5,5.3-1.2,10.5-2.1,15.5c-4.4,22.6-15.7,51.3-44.2,68.2c5-17.9,7.8-36.8,8.1-55.4
	c0.1-8.3-0.3-16.5-1.1-24.3c-0.1-1.2-0.3-2.4-0.4-3.6c0,0,0,0,0-0.1c-0.5-4.1-1.2-8.2-2-12.1c-2.2-10.5-5.3-20.2-9.2-29.1
	C215.7,59.8,226,47.9,239,39.4z M234.1,230l-14.2,39v-57.6c0.7-0.4,1.3-0.8,2-1.2C225.1,217.3,229.2,223.9,234.1,230z M200.2,28.3
	c4.2,4.7,8,9.7,11.4,15c-4.1,4.5-7.8,9.5-11.2,14.8c-3.4-5.4-7.3-10.4-11.5-14.9C192.2,38,196,33,200.2,28.3z M144.4,56.4
	c1.6-7.8,3.6-15.5,6-23c9.7,4.5,17.7,10.2,24.4,16.7c7.5,7.3,13.6,16,18.3,25.3c1.3,2.7,2.6,5.4,3.7,8.2c6.4,16.1,9.7,35,9.9,54.9
	c0,0.8,0,1.5,0,2.3c0,0,0,0.1,0,0.1c-0.2,19.2-3.2,39.2-8.9,58c-0.3,1.1-0.7,2.2-1,3.3c-1.3-0.6-2.6-1.3-3.9-1.9
	c-31.6-16.5-44.2-46.7-49.1-70.3c-1-5-1.8-10.1-2.3-15.3c-2.1-23.8,1.1-45.3,3.1-55.5C144.6,58.2,144.6,57.3,144.4,56.4z
	 M205.1,218.5v66.6h-9.5v-67.2c0.9,0.4,1.9,0.7,2.8,1.1C200.8,219.9,202.9,219.3,205.1,218.5z M180.8,210.6v57.8l-14-38.4
	c5-6.2,9.1-13,12.4-20.3C179.8,210,180.3,210.3,180.8,210.6z M112.6,125.7c0.4-12.3,3-24.5,8.3-35.6c1.5-3.2,3.3-6.4,5.3-9.4
	c-0.8,11-0.8,21.9,0.1,32.4c0.7,8.4,1.9,16.6,3.6,24.5c6.1,27.1,18.5,48.5,36.8,63.8c-3.4,8.3-8.2,15.9-14.2,22.6
	c-0.3,0.3-0.5,0.6-0.8,0.9c-0.2,0.2-0.4,0.5-0.7,0.7c-0.4,0.5-0.9,0.9-1.3,1.4c-0.1,0.1-0.1,0.2-0.2,0.2c0,0,0,0,0,0
	c-0.5-0.7-1-1.4-1.6-2c-0.1-0.1-0.2-0.2-0.2-0.3c-11.2-15-20.3-32-26.5-49.2C115.2,158.7,112.1,141.5,112.6,125.7z M92,79.6
	c4.7,2.6,9.2,5.5,13.4,8.7c-2,4.9-3.7,10-4.9,15.3c-4.3-3.3-8.7-6.1-13.3-8.6C88.4,89.8,90,84.7,92,79.6z M74.5,184.4
	c-13.9-23.3-22.6-54.5-23.7-84.9c8.8,0.8,17.1,3,24.9,6.5l0,0c5.2,2.3,10.2,5.3,14.9,8.8c2.6,1.9,5,3.9,7.3,6.1
	c-1,15.2,0.9,30.5,4.8,45.2c3.8,14.5,9.5,28.6,16.6,41.8c3.9,7.3,8.2,14.3,13,21.1C103.4,223,85.2,202.2,74.5,184.4z M161.1,285.1
	l-14.4-39.7c0.7,0,1.4,0,2.1,0c2.9,0,4.8-1.6,6.8-3.5l15.7,43.1H161.1z M207.4,374.3h-13.7l-10.7-29.5h35.3L207.4,374.3z M223.5,330
	h-46.1l-10.9-30.1h68L223.5,330z M239.9,285.1h-10.1l15.7-43.1c1.2,1.1,2.4,2.3,3.9,2.9c1.6,0.7,3.2,0.6,4.9,0.5L239.9,285.1z
	 M326.5,184.4c-10.7,17.8-28.9,38.5-57.9,44.5c9.6-13.6,17.7-28.7,23.6-44.3c2.7-7.1,4.9-14.3,6.7-21.3c1.2-4.9,2.2-9.8,2.9-14.6
	c1.4-9.7,1.8-19,1.2-27.9c10.1-9.3,22.2-16.2,35.5-19.4c3.8-0.9,7.7-1.6,11.7-1.9C349.1,129.9,340.4,161.1,326.5,184.4z"/>
<g display="none">
	<g display="inline">
		<g>
			<path fill="#8B8B8A" d="M338.2,240.6h-16c13.8-21.7,21.7-47.4,21.7-74.9c0-77.3-62.9-140.1-140.1-140.1S63.7,88.4,63.7,165.7
				c0,27.5,8,53.2,21.7,74.9h-16c-2.4,0-4.5,1.5-5.4,3.7c-0.9,2.2-0.3,4.7,1.5,6.3L200,373.4c1.1,1,2.5,1.5,3.9,1.5s2.8-0.5,3.9-1.5
				l134.4-122.8c1.8-1.6,2.3-4.1,1.5-6.3C342.7,242,340.6,240.6,338.2,240.6z M75.3,165.7c0-70.9,57.7-128.6,128.6-128.6
				s128.6,57.7,128.6,128.6c0,70.9-57.7,128.6-128.6,128.6S75.3,236.6,75.3,165.7z M203.9,361.4L84.3,252.1h9.3
				c25.7,32.7,65.6,53.7,110.3,53.7s84.6-21,110.3-53.7h9.3L203.9,361.4z"/>
		</g>
	</g>
	<g display="inline">
		<g>
			<path fill="#8B8B8A" d="M290.5,129.1c-4.7-11.2-11.5-21.3-20.2-29.9c-8.6-8.6-18.7-15.4-29.9-20.2c-11.6-4.9-23.9-7.4-36.6-7.4h0
				c-7.2,0-14.5,0.8-21.5,2.5c-6.8,1.6-13.4,4-19.7,7c-15.6,7.6-28.8,19.4-38.2,34.1c-9.6,15.1-14.7,32.5-14.7,50.5
				c0,7.1,0.8,14.3,2.4,21.2c1.6,6.7,3.8,13.3,6.8,19.5c1,2,3,3.3,5.2,3.3c0.9,0,1.7-0.2,2.5-0.6c2.9-1.4,4.1-4.8,2.7-7.7l0,0
				c-2.6-5.5-4.6-11.2-6-17.1c-1.4-6.1-2.1-12.3-2.1-18.6c0-15.8,4.5-31.1,12.9-44.3c8.2-12.9,19.8-23.2,33.5-29.9
				c5.5-2.7,11.3-4.8,17.3-6.2c6.1-1.4,12.5-2.2,18.8-2.2c11.2,0,22,2.2,32.1,6.5c9.8,4.2,18.6,10.1,26.2,17.7
				c7.6,7.6,13.5,16.4,17.7,26.2c4.3,10.2,6.5,21,6.5,32.1c0,11.1-2.2,22-6.5,32.1c-4.2,9.8-10.1,18.6-17.7,26.2
				c-7.6,7.6-16.4,13.5-26.2,17.7c-10.2,4.3-21,6.5-32.1,6.5c-6.2,0-12.3-0.7-18.3-2c-5.8-1.3-11.5-3.3-16.8-5.8
				c-5.3-2.5-10.3-5.5-15-9.1c-4.6-3.5-8.9-7.6-12.7-12c-1.1-1.3-2.7-2-4.4-2c-1.4,0-2.7,0.5-3.7,1.4c-2.4,2.1-2.7,5.7-0.6,8.1
				c4.3,5,9.2,9.6,14.4,13.6c5.3,4,11,7.5,17.1,10.4c6.1,2.9,12.6,5.1,19.2,6.6c6.8,1.5,13.8,2.3,20.8,2.3h0c12.7,0,25-2.5,36.6-7.4
				c11.2-4.7,21.3-11.5,29.9-20.2c8.6-8.6,15.4-18.7,20.2-29.9c4.9-11.6,7.4-23.9,7.4-36.6C297.9,153,295.4,140.7,290.5,129.1z"/>
		</g>
	</g>
	<g display="inline">
		<g>
			<path fill="#8B8B8A" d="M54.1,71.7c-3.2,0-5.8,2.6-5.8,5.8v25h-7.7v-25c0-3.2-2.6-5.8-5.8-5.8c-3.2,0-5.8,2.6-5.8,5.8v25h-7.7
				v-25c0-3.2-2.6-5.8-5.8-5.8c-3.2,0-5.8,2.6-5.8,5.8v42.2c0,11.8,8.2,21.7,19.2,24.3V254c0,3.2,2.6,5.8,5.8,5.8
				c3.2,0,5.8-2.6,5.8-5.8V143.9c11-2.6,19.2-12.5,19.2-24.3V77.4C59.9,74.2,57.3,71.7,54.1,71.7z M48.4,119.6
				c0,7.4-6,13.4-13.4,13.4s-13.4-6-13.4-13.4v-5.8h26.9L48.4,119.6z"/>
		</g>
	</g>
	<g display="inline">
		<g>
			<path fill="#8B8B8A" d="M361.3,71.7c-3.2,0-5.8,2.6-5.8,5.8V254c0,3.2,2.6,5.8,5.8,5.8c3.2,0,5.8-2.6,5.8-5.8v-86.4h17.3
				c3.2,0,5.8-2.6,5.8-5.8v-61.4C390,84.6,377.1,71.7,361.3,71.7z M378.5,156.1H367V84.2c6.7,2.4,11.5,8.8,11.5,16.3L378.5,156.1
				L378.5,156.1z"/>
		</g>
	</g>
	<g display="inline">
		<g>
			<path fill="#8B8B8A" d="M249.3,128.9c-6.6-6.6-15.4-10.3-24.7-10.3c-7.5,0-14.7,2.4-20.7,6.8c-6-4.4-13.1-6.8-20.7-6.8
				c-9.3,0-18.1,3.6-24.7,10.3c-13.6,13.6-13.6,35.8,0,49.5l41.4,41.3c1.1,1.1,2.6,1.7,4.1,1.7c1.5,0,2.9-0.6,4.1-1.7l41.3-41.3
				C262.9,164.7,262.9,142.5,249.3,128.9z M241.1,170.2l-37.3,37.3l-37.3-37.3c-9.2-9.2-9.2-24.1,0-33.2c4.4-4.4,10.3-6.9,16.6-6.9
				c6.3,0,12.2,2.4,16.6,6.9c1.1,1.1,2.5,1.7,4.1,1.7h0c1.5,0,3-0.6,4.1-1.7c4.4-4.4,10.3-6.9,16.6-6.9c6.3,0,12.2,2.4,16.6,6.9
				C250.3,146.2,250.3,161,241.1,170.2z"/>
		</g>
	</g>
</g>
<g display="none">
	<path display="inline" fill="#8B8B8A" d="M60.5,272.5c0,0,66.4,66.4,66.4,66.4c5.5,5.5,14.8,5.5,20.3,0c0,0,45.6-45.6,45.6-45.6
		c5.5-5.5,5.5-14.8,0-20.3c0,0-66.4-66.4-66.4-66.4c-5.5-5.5-14.8-5.5-20.3,0c0,0-45.6,45.6-45.6,45.6C55,257.8,55,267,60.5,272.5z
		 M68.4,260.1c0,0,45.6-45.6,45.6-45.6c1.3-1.3,3.4-1.3,4.7,0l66.4,66.4c1.3,1.3,1.3,3.4,0,4.7c0,0-45.6,45.6-45.6,45.6
		c-1.3,1.3-3.4,1.3-4.7,0l-66.4-66.4C67.1,263.4,67.1,261.3,68.4,260.1z"/>
	<path display="inline" fill="#8B8B8A" d="M100.2,253.9c1.4,0,2.8-0.5,3.9-1.6l4.6-4.6c2.2-2.2,2.2-5.7,0-7.8
		c-2.2-2.2-5.7-2.2-7.8,0l-4.6,4.6c-2.2,2.2-2.2,5.7,0,7.8C97.3,253.4,98.8,253.9,100.2,253.9z"/>
	<path display="inline" fill="#8B8B8A" d="M151.1,304.8c1.4,0,2.8-0.5,3.9-1.6l4.6-4.6c2.2-2.2,2.2-5.7,0-7.8
		c-2.2-2.2-5.7-2.2-7.8,0l-4.6,4.6c-2.2,2.2-2.2,5.7,0,7.8C148.2,304.2,149.7,304.8,151.1,304.8z"/>
	<path display="inline" fill="#8B8B8A" d="M131.5,285.4c3.4,0,6.5-2.2,6.3-5.9c-0.2-3.1-2.8-5.4-5.9-5.2c-1.7,0.1-3.5-0.6-4.8-1.9
		c-1.3-1.3-2-3.1-1.9-4.8c0.2-3.1-2.1-5.7-5.2-5.9c-3.1-0.2-5.7,2.1-5.9,5.2c-0.3,4.9,1.5,9.8,5.1,13.3
		C122.5,283.4,127,285.4,131.5,285.4z"/>
	<path display="inline" fill="#8B8B8A" d="M380.4,38c0,0-18.9-18.9-19-19C350,7.5,330.8,7.6,319.3,19L307.4,31
		c-12.4,12.4-21,27.8-25,44.8c-18.3,17.6-45.3,28.1-73.9,39.2c-16.8,6.5-33.7,13.1-49.9,21.1c-24.5,12.1-43.6,25.4-60,41.9
		l-34.6,34.6c-2.2,2.2-2.2,5.7,0,7.8c2.2,2.2,5.7,2.2,7.8,0l34.6-34.6c14.3-14.3,30.8-26.1,51.5-36.9l14.4,41.3c0,0,0,0,0,0.1
		c-1.4,3-2.5,6.2-3.2,9.4c-2.2,10.6,0.5,22.5,10.4,28.2c0,0,0,0,0,0c8.5,4.9,19.1,3.5,27.9,0c0,0,0.1,0,0.1,0
		c0.6-0.2,1.2-0.5,1.7-0.7c6.6,2.3,26.7,9.3,41.3,14.4c-10.8,20.7-22.6,37.2-37,51.5L150,356.6c-6.7,6.7-14.4,12.3-22.8,16.6
		c-14.6,7.5-32.2,4.6-44-7.1l-49.9-49.9c-11.7-11.7-14.6-29.4-7.1-44c4.3-8.4,9.9-16.1,16.7-22.8l13.4-13.4c2.2-2.2,2.2-5.7,0-7.8
		c-2.2-2.2-5.7-2.2-7.8,0L35,241.6c-7.5,7.5-13.8,16.1-18.7,25.6c-9.7,18.9-6,41.7,9.1,56.9c0,0,49.9,49.9,49.9,49.9
		c14.8,14.9,38.1,18.8,56.9,9.1c9.5-4.9,18.1-11.1,25.6-18.7l63.6-63.6c16.5-16.5,29.8-35.5,41.9-60c6.5-13.2,11.9-26.3,16.2-37.3
		c5.7-14.4,11-29,17.3-43.2c1.2-2.8,0-6.1-2.8-7.3c-2.8-1.2-6.1,0-7.3,2.8c-4.4,9.9-8.4,20.2-12.6,31.1c-1,2.5-1.9,5-2.9,7.5
		l-29.5-10.3c0.5-6.8-1.1-13-4.9-17.9c-5.1-6.5-13.6-9.2-21.6-8.6L205,128.2c2.5-1,5-2,7.5-2.9c28.3-11,55.1-21.4,74.8-38.9
		l25.8,25.8c-5.9,6.6-11.3,14.3-16.4,23.5c-1.5,2.7-0.5,6,2.1,7.5c2.7,1.5,6,0.5,7.5-2.1c5.4-9.7,11.1-17.5,17.3-24
		c17-4,32.5-12.7,44.9-25l11.9-11.9C392.1,68.5,392.1,49.6,380.4,38z M168,143.9c9.3-4.4,18.4-8.3,26.7-11.6l9.7,27.9
		c-5.7,2.1-11.3,5.4-16.4,9.7c-2.9,2.5-5.6,5.2-8,8.2c0,0-0.1,0.1-0.1,0.1L168,143.9z M239.4,195.1l27.8,9.7
		c-3.3,8.3-7.2,17.4-11.6,26.7l-34.3-11.9c2.9-2.4,5.7-5.1,8.1-8C234,206.3,237.3,200.7,239.4,195.1z M212.7,169.3
		c5.1-1.1,11.9-0.7,15.4,3.7c0,0,0.1,0.1,0.1,0.1c3.8,4.9,2.9,12.1,0.9,17.6c-2.5,7-6.9,13.2-12.3,18.2c0,0-0.1,0-0.1,0.1
		c-7.6,7-24.2,17.2-33.8,7.6c-9.9-9.9,1.7-27.9,9.1-35.3C197.7,175.6,204.8,171,212.7,169.3z M372.6,72.3l-11.9,11.9
		c-10.6,10.6-23.7,18-38.1,21.7l-29.1-29.1c3.7-14.4,11.2-27.6,21.7-38.1c0,0,11.9-11.9,11.9-11.9c7.2-7.2,19.3-7.2,26.5,0l19,19
		C379.9,53.1,379.9,65,372.6,72.3z"/>
</g>
<g display="none">
	<g display="inline">
		<g>
			<path fill="#8B8B8A" d="M192.3,18.2C187,12.9,180,10,172.4,10c-5.7,0-11.2,1.7-15.8,4.9c-4.6-3.2-10.1-4.9-15.8-4.9
				c-7.5,0-14.6,2.9-19.9,8.2c-5.3,5.3-8.2,12.4-8.2,19.9c0,7.5,2.9,14.6,8.2,19.9l31.7,31.7c1.1,1.1,2.6,1.7,4.1,1.7
				c1.5,0,2.9-0.6,4.1-1.7l31.7-31.7C203.3,47.1,203.3,29.2,192.3,18.2z M184.2,49.9l-27.6,27.6L129,49.9c-3.1-3.1-4.9-7.3-4.9-11.8
				s1.7-8.6,4.9-11.8c3.1-3.1,7.3-4.9,11.8-4.9c4.5,0,8.6,1.7,11.8,4.9c1.1,1.1,2.5,1.7,4.1,1.7c1.5,0,3-0.6,4.1-1.7
				c3.1-3.1,7.3-4.9,11.8-4.9c4.5,0,8.6,1.7,11.8,4.9C190.7,32.9,190.7,43.4,184.2,49.9z"/>
		</g>
	</g>
	<g display="inline">
		<g>
			<path fill="#8B8B8A" d="M245.3,80.5c-3.2-3.2-7.5-5-12-5c-2.8,0-5.5,0.7-7.9,2c-2.4-1.3-5.1-2-7.9-2c-4.5,0-8.8,1.8-12,5
				c-3.2,3.2-5,7.5-5,12c0,4.5,1.8,8.8,5,12l15.8,15.8c1.1,1.1,2.5,1.7,4.1,1.7c1.5,0,3-0.6,4.1-1.7l15.8-15.8
				C252,97.9,252,87.1,245.3,80.5z M237.2,96.4l-11.8,11.8l-11.8-11.8c-1-1-1.6-2.4-1.6-3.9c0-1.5,0.6-2.8,1.6-3.9
				c1-1,2.4-1.6,3.9-1.6c1.5,0,2.8,0.6,3.9,1.6c1.1,1.1,2.5,1.7,4.1,1.7h0c1.5,0,3-0.6,4.1-1.7c1-1,2.4-1.6,3.9-1.6
				c1.5,0,2.8,0.6,3.9,1.6C239.4,90.8,239.4,94.3,237.2,96.4z"/>
		</g>
	</g>
	<g display="inline">
		<g>
			<path fill="#8B8B8A" d="M338.3,102.4c-1.4,0-35,0.2-52.7,17.9L250,155.9L80,113.4c0,0-0.1,0-0.1,0c-0.1,0-0.2,0-0.3-0.1
				c-0.1,0-0.2,0-0.2,0c-0.1,0-0.2,0-0.3,0c-0.1,0-0.2,0-0.3,0c-0.1,0-0.2,0-0.3,0c-0.1,0-0.2,0-0.3,0c-0.1,0-0.2,0-0.3,0
				c-0.1,0-0.2,0-0.3,0c-0.1,0-0.2,0-0.3,0.1c-0.1,0-0.1,0-0.2,0c-0.1,0-0.2,0.1-0.4,0.1c-0.1,0-0.1,0-0.2,0.1
				c-0.1,0-0.2,0.1-0.4,0.2c0,0-0.1,0-0.1,0.1c-0.1,0.1-0.2,0.1-0.4,0.2c0,0-0.1,0.1-0.1,0.1c-0.1,0.1-0.2,0.1-0.3,0.2
				c-0.1,0-0.1,0.1-0.2,0.1c-0.1,0.1-0.2,0.1-0.2,0.2c-0.1,0.1-0.1,0.1-0.2,0.2c0,0-0.1,0.1-0.1,0.1l-16.2,16.2c0,0-0.1,0.1-0.1,0.1
				c-0.1,0.1-0.1,0.2-0.2,0.2c-0.1,0.1-0.1,0.2-0.2,0.2c0,0-0.1,0.1-0.1,0.1c0,0-0.1,0.1-0.1,0.1c-0.1,0.1-0.1,0.2-0.2,0.3
				c0,0.1-0.1,0.1-0.1,0.2c-0.1,0.1-0.1,0.2-0.1,0.3c0,0.1-0.1,0.2-0.1,0.2c0,0.1-0.1,0.2-0.1,0.3c0,0.1-0.1,0.2-0.1,0.3
				c0,0.1-0.1,0.2-0.1,0.3c0,0.1,0,0.2-0.1,0.3c0,0.1,0,0.2,0,0.2c0,0.1,0,0.2,0,0.3c0,0.1,0,0.2,0,0.3c0,0.1,0,0.2,0,0.3
				c0,0.1,0,0.2,0,0.3c0,0.1,0,0.2,0,0.3c0,0.1,0,0.2,0,0.3c0,0.1,0,0.2,0,0.3c0,0.1,0,0.2,0.1,0.3c0,0.1,0,0.2,0.1,0.2
				c0,0.1,0.1,0.2,0.1,0.3c0,0.1,0.1,0.2,0.1,0.2c0,0.1,0.1,0.2,0.1,0.3c0,0.1,0.1,0.2,0.1,0.2c0,0.1,0.1,0.2,0.1,0.3
				c0,0.1,0.1,0.2,0.1,0.2c0,0.1,0.1,0.1,0.1,0.2c0.1,0.1,0.1,0.2,0.2,0.3c0.1,0.1,0.1,0.1,0.2,0.2c0.1,0.1,0.1,0.2,0.2,0.2
				c0,0,0.1,0.1,0.1,0.1c0,0,0.1,0.1,0.1,0.1c0.1,0.1,0.1,0.1,0.2,0.2c0.1,0.1,0.2,0.1,0.2,0.2c0,0,0.1,0.1,0.1,0.1l119.1,88
				l-57.7,57.7l-29.1-9.7c-0.1,0-0.1,0-0.2,0c-0.1,0-0.2-0.1-0.3-0.1c-0.1,0-0.2,0-0.3-0.1c-0.1,0-0.2,0-0.3,0c-0.1,0-0.2,0-0.3,0
				c-0.1,0-0.1,0-0.2,0c-0.1,0-0.2,0-0.3,0c-0.1,0-0.1,0-0.2,0c-0.1,0-0.2,0-0.3,0c-0.1,0-0.1,0-0.2,0c-0.1,0-0.2,0-0.3,0.1
				c-0.1,0-0.1,0-0.2,0.1c-0.1,0-0.2,0.1-0.3,0.1c-0.1,0-0.1,0-0.2,0.1c-0.1,0-0.2,0.1-0.3,0.1c-0.1,0-0.1,0.1-0.2,0.1
				c-0.1,0.1-0.2,0.1-0.4,0.2c0,0-0.1,0-0.1,0.1l-0.1,0l0,0l-26.9,16.1c0,0,0,0,0,0l0,0c0,0,0,0,0,0c-0.1,0.1-0.3,0.2-0.4,0.3
				c0,0-0.1,0.1-0.1,0.1c-0.1,0.1-0.2,0.2-0.3,0.3c-0.1,0.1-0.1,0.1-0.2,0.2c-0.1,0.1-0.1,0.1-0.2,0.2c-0.1,0.1-0.2,0.2-0.2,0.3
				c0,0-0.1,0.1-0.1,0.1c-0.1,0.1-0.2,0.3-0.3,0.4c0,0,0,0,0,0l0,0c-0.2,0.3-0.4,0.7-0.5,1c-0.1,0.2-0.1,0.3-0.1,0.5c0,0,0,0,0,0.1
				c0,0.1-0.1,0.3-0.1,0.4c0,0,0,0.1,0,0.1c0,0.1,0,0.2,0,0.4c0,0.1,0,0.1,0,0.2c0,0.1,0,0.2,0,0.3c0,0.1,0,0.2,0,0.3
				c0,0.1,0,0.1,0,0.2c0,0.1,0,0.2,0,0.4c0,0,0,0.1,0,0.1c0,0.1,0.1,0.3,0.1,0.4c0,0,0,0,0,0c0.1,0.3,0.2,0.5,0.3,0.8
				c0,0.1,0.1,0.2,0.1,0.2c0,0,0,0,0,0.1c0.1,0.2,0.2,0.3,0.2,0.5c0,0,0,0,0,0s0,0,0,0c0.1,0.2,0.2,0.4,0.4,0.5
				c0,0.1,0.1,0.1,0.1,0.1c0.1,0.1,0.2,0.3,0.3,0.4c0,0,0.1,0.1,0.1,0.1c0.2,0.1,0.3,0.3,0.5,0.4c0.1,0,0.1,0.1,0.2,0.1
				c0.1,0.1,0.2,0.1,0.3,0.2l47.8,28.7l-5.6,5.6c-2.2,2.2-2.2,5.9,0,8.1c1.1,1.1,2.6,1.7,4.1,1.7c1.5,0,2.9-0.6,4.1-1.7l5.6-5.6
				L144,387c0,0,0,0,0,0l0,0l0,0c0.1,0.2,0.2,0.4,0.4,0.6c0,0,0.1,0.1,0.1,0.1c0.1,0.1,0.2,0.3,0.4,0.4c0,0,0.1,0.1,0.1,0.1
				c0.2,0.1,0.3,0.3,0.5,0.4c0.1,0,0.1,0.1,0.2,0.1c0.1,0.1,0.2,0.1,0.3,0.2c0,0,0,0,0.1,0c0.1,0.1,0.3,0.2,0.4,0.2
				c0.1,0,0.2,0.1,0.3,0.1c0.1,0.1,0.3,0.1,0.4,0.1c0.1,0,0.2,0.1,0.3,0.1c0.1,0,0.2,0,0.3,0.1c0.1,0,0.3,0.1,0.4,0.1
				c0.2,0,0.3,0,0.5,0c0.1,0,0.2,0,0.3,0l0,0l0,0c0.1,0,0.2,0,0.3,0c0.2,0,0.3,0,0.5,0c0.1,0,0.3,0,0.4-0.1c0.1,0,0.2,0,0.3-0.1
				c0.1,0,0.2-0.1,0.3-0.1c0.1,0,0.3-0.1,0.4-0.1c0.1,0,0.2-0.1,0.3-0.1c0.1-0.1,0.3-0.1,0.4-0.2c0,0,0.1,0,0.1,0
				c0.1-0.1,0.2-0.1,0.3-0.2c0,0,0.1-0.1,0.1-0.1c0.2-0.1,0.3-0.3,0.5-0.4c0,0,0.1-0.1,0.1-0.1c0.1-0.1,0.2-0.3,0.4-0.4
				c0,0,0.1-0.1,0.1-0.1c0.1-0.2,0.3-0.4,0.4-0.6l0,0l0,0c0,0,0,0,0,0l16.2-27c0-0.1,0.1-0.1,0.1-0.2c0-0.1,0.1-0.2,0.1-0.3
				c0-0.1,0.1-0.2,0.1-0.3c0-0.1,0.1-0.2,0.1-0.2c0-0.1,0.1-0.2,0.1-0.3c0-0.1,0-0.2,0.1-0.2c0-0.1,0-0.2,0.1-0.3c0-0.1,0-0.2,0-0.2
				c0-0.1,0-0.2,0-0.3c0-0.1,0-0.2,0-0.3c0-0.1,0-0.2,0-0.3c0-0.1,0-0.2,0-0.3c0-0.1,0-0.2,0-0.3c0-0.1,0-0.2,0-0.3
				c0-0.1,0-0.2,0-0.3c0-0.1,0-0.2-0.1-0.3c0-0.1-0.1-0.2-0.1-0.3c0-0.1,0-0.1-0.1-0.2l-9.7-29.1l165.2-165.2c0,0,0,0,0,0
				c17.7-17.7,17.9-51.3,17.9-52.7C344.1,105,341.5,102.4,338.3,102.4z M71.2,134.6l9.2-9.2l160.1,40l-54.3,54.3L71.2,134.6z
				 M318.1,152.8L318.1,152.8L150.3,320.5c0,0,0,0-0.1,0.1c-0.1,0.1-0.2,0.2-0.2,0.2c-0.1,0.1-0.1,0.1-0.2,0.2
				c-0.1,0.1-0.1,0.1-0.2,0.2c-0.1,0.1-0.1,0.2-0.2,0.3c0,0.1-0.1,0.1-0.1,0.2c-0.1,0.1-0.1,0.2-0.2,0.3c0,0.1,0,0.1-0.1,0.2
				c-0.1,0.1-0.1,0.2-0.2,0.3c0,0.1,0,0.1-0.1,0.2c0,0.1-0.1,0.2-0.1,0.3c0,0.1,0,0.2-0.1,0.2c0,0.1,0,0.2-0.1,0.3
				c0,0.1,0,0.2,0,0.3c0,0.1,0,0.2,0,0.2c0,0.1,0,0.2,0,0.3c0,0.1,0,0.1,0,0.2c0,0.1,0,0.2,0,0.3c0,0.1,0,0.2,0,0.2
				c0,0.1,0,0.2,0,0.3c0,0.1,0,0.2,0.1,0.3c0,0.1,0,0.2,0.1,0.2c0,0.1,0.1,0.2,0.1,0.3c0,0,0,0,0,0.1l10,30l-10,16.6l-25.2-42.1
				l23.9-23.9c2.2-2.2,2.2-5.9,0-8.1c-2.2-2.2-5.9-2.2-8.1,0l-23.9,23.9l-42.1-25.2l16.6-10l30,10c0,0,0,0,0.1,0
				c0.3,0.1,0.5,0.1,0.8,0.2c0.1,0,0.1,0,0.2,0c0.2,0,0.5,0.1,0.7,0.1c0,0,0.1,0,0.1,0c0,0,0.1,0,0.1,0c0.2,0,0.5,0,0.7-0.1
				c0.1,0,0.1,0,0.2,0c0.2,0,0.5-0.1,0.7-0.2c0,0,0.1,0,0.1-0.1c0.2-0.1,0.4-0.2,0.6-0.3c0,0,0.1,0,0.1-0.1c0.2-0.1,0.4-0.2,0.7-0.4
				c0.1,0,0.1-0.1,0.2-0.1c0.2-0.1,0.3-0.3,0.5-0.4c0,0,0.1-0.1,0.1-0.1c0,0,0,0,0,0l167.7-167.7c10.4-10.4,29-13.3,38.6-14.2
				C331.4,123.8,328.5,142.4,318.1,152.8z"/>
		</g>
	</g>
	<g display="inline">
		<g>
			<path fill="#8B8B8A" d="M333.2,367.4c0-0.1,0-0.2,0-0.3c0-0.1,0-0.2,0-0.3c0-0.1,0-0.2-0.1-0.3c0,0,0-0.1,0-0.1l-36.8-147.2
				c-0.8-3.1-3.9-4.9-7-4.2c-3.1,0.8-4.9,3.9-4.2,7l36,144l-9.2,9.2l-74.2-100.4c-1.9-2.5-5.5-3.1-8-1.2c-2.5,1.9-3.1,5.5-1.2,8
				l78.2,105.8c0,0,0,0,0.1,0.1c0.1,0.1,0.2,0.2,0.3,0.3c0.1,0.1,0.1,0.1,0.2,0.2c0,0,0,0,0.1,0.1c0.1,0.1,0.2,0.2,0.3,0.2
				c0.1,0,0.1,0.1,0.2,0.1c0.2,0.1,0.3,0.3,0.5,0.4c0,0,0.1,0.1,0.1,0.1c0.1,0.1,0.3,0.2,0.4,0.2c0.1,0,0.1,0.1,0.2,0.1
				c0.1,0.1,0.3,0.1,0.4,0.2c0.1,0,0.1,0,0.2,0.1c0.1,0,0.3,0.1,0.4,0.1c0.1,0,0.1,0,0.2,0c0.1,0,0.3,0.1,0.4,0.1c0.1,0,0.1,0,0.2,0
				c0.2,0,0.4,0,0.6,0l0,0l0,0c0.3,0,0.5,0,0.8-0.1c0.1,0,0.1,0,0.2,0c0.3,0,0.5-0.1,0.7-0.2c0,0,0.1,0,0.1,0
				c0.2-0.1,0.5-0.2,0.7-0.3c0,0,0,0,0.1,0c0.2-0.1,0.5-0.3,0.7-0.4c0,0,0,0,0.1,0c0,0,0.1-0.1,0.1-0.1c0.1-0.1,0.2-0.1,0.2-0.2
				c0.1-0.1,0.2-0.1,0.2-0.2c0,0,0.1-0.1,0.1-0.1l16.2-16.2c0,0,0.1-0.1,0.1-0.1c0.1-0.1,0.1-0.2,0.2-0.2c0.1-0.1,0.1-0.1,0.2-0.2
				c0.1-0.1,0.1-0.1,0.2-0.2c0.1-0.1,0.1-0.2,0.2-0.3c0-0.1,0.1-0.1,0.1-0.2c0.1-0.1,0.1-0.2,0.2-0.3c0-0.1,0.1-0.1,0.1-0.2
				c0-0.1,0.1-0.2,0.1-0.3c0-0.1,0.1-0.1,0.1-0.2c0-0.1,0.1-0.2,0.1-0.3c0-0.1,0-0.2,0.1-0.3c0-0.1,0-0.2,0.1-0.3c0-0.1,0-0.2,0-0.3
				c0-0.1,0-0.2,0-0.2c0-0.1,0-0.2,0-0.3c0-0.1,0-0.2,0-0.2C333.2,367.6,333.2,367.5,333.2,367.4z"/>
		</g>
	</g>
</g>
<g display="none">
	<g display="inline">
		<path fill="#8B8B8A" d="M359.9,111.8c-9.3-9.2-24.3-9.2-33.6,0c-7.3,7.3-8.6,18-4.5,26.8L210.7,249.8l-2.1-4.5V55.9
			c9.2-3.3,15.8-12,15.8-22.3c0-13.1-10.6-23.7-23.7-23.7c-13.1,0-23.7,10.7-23.7,23.7c0,10.3,6.6,19,15.8,22.3v155.8L128.3,74.5
			c6.9-6.9,9.2-17.6,4.8-26.9c-5.6-11.8-19.7-17-31.6-11.4c-11.8,5.6-17,19.7-11.4,31.6c4,8.6,12.6,13.6,21.5,13.6
			c0.7,0,1.5-0.2,2.2-0.2l78.8,167.7v3L79.5,138.6c4.1-8.8,2.8-19.6-4.5-26.8c-9.3-9.2-24.3-9.2-33.6,0c-9.3,9.3-9.3,24.3,0,33.6
			c4.6,4.6,10.7,6.9,16.8,6.9c3.5,0,6.9-1,10.1-2.5L189.5,271L84.3,376.2c-3.1,3.1-3.1,8.1,0,11.2c1.6,1.5,3.6,2.3,5.6,2.3
			s4.1-0.8,5.6-2.3l97.3-97.3v91.7c0,4.4,3.5,7.9,7.9,7.9c4.4,0,7.9-3.5,7.9-7.9v-91.7l6.7,6.7l41.5,88.3c1.4,2.9,4.2,4.5,7.2,4.5
			c1.1,0,2.3-0.3,3.4-0.8c4-1.9,5.7-6.6,3.8-10.5l-22.8-48.6l57.5,57.5c1.6,1.5,3.6,2.3,5.6,2.3c2,0,4.1-0.8,5.6-2.3
			c3.1-3.1,3.1-8.1,0-11.2l-88.6-88.6L217.8,265l115.2-115.2c3.2,1.5,6.6,2.5,10.1,2.5c6.1,0,12.2-2.3,16.8-6.9
			C369.2,136.1,369.2,121,359.9,111.8z M115,64.8c-3.9,1.8-8.7,0.2-10.5-3.8c-1.9-3.9-0.2-8.7,3.8-10.5c1.1-0.5,2.2-0.8,3.4-0.8
			c3,0,5.8,1.7,7.2,4.5C120.6,58.3,118.9,63,115,64.8z M63.8,134.2c-3.1,3.1-8.1,3.1-11.2,0s-3.1-8.1,0-11.2
			c1.6-1.5,3.6-2.3,5.6-2.3c2,0,4.1,0.8,5.6,2.3C66.9,126,66.9,131.1,63.8,134.2z M200.7,41.5c-4.4,0-7.9-3.6-7.9-7.9
			s3.5-7.9,7.9-7.9c4.4,0,7.9,3.6,7.9,7.9S205,41.5,200.7,41.5z M348.7,134.2c-3.1,3.1-8.1,3.1-11.2,0s-3.1-8.1,0-11.2
			c1.6-1.5,3.6-2.3,5.6-2.3s4.1,0.8,5.6,2.3C351.8,126,351.8,131.1,348.7,134.2z"/>
	</g>
</g>
<g display="none">
	<g display="inline">
		<g>
			<path fill="#8B8B8A" d="M286.2,139.3l22.6-22.6l-16.1-18.8h-38.9l-16.1,18.8l22.6,22.6c-22,2.4-42.8,11-60.2,24.9
				c-17.3-13.8-38.2-22.5-60.2-24.9l22.6-22.6l-16.1-18.8h-38.9l-16.1,18.8l22.6,22.6C55.7,145.8,10,195.5,10,255.7
				c0,64.6,52.5,117.1,117.1,117.1c26.6,0,52.4-9.1,73.1-25.6c20.7,16.5,46.5,25.6,73.1,25.6c64.6,0,117.1-52.5,117.1-117.1
				C390.3,195.5,344.7,145.8,286.2,139.3z M253.1,116.1l5.9-6.9h28.5l5.9,6.9l-20.2,20.2L253.1,116.1z M106.9,116.1l5.9-6.9h28.5
				l5.9,6.9l-20.2,20.2L106.9,116.1z M127.1,361.5c-58.3,0-105.8-47.5-105.8-105.8s47.5-105.8,105.8-105.8
				c25.5,0,50.1,9.2,69.4,25.9c6,5.2,11.4,11.1,16.1,17.5c13.3,18.2,20.4,39.8,20.4,62.4c0,20.5-5.8,40.1-16.8,57.2
				c-0.1-0.1-0.3-0.3-0.4-0.4c-0.6-0.6-1.2-1.3-1.8-1.9c-0.3-0.3-0.5-0.6-0.8-0.9c-0.5-0.5-1-1.1-1.5-1.7c-0.3-0.3-0.5-0.6-0.8-1
				c-0.5-0.6-0.9-1.1-1.4-1.7c-0.3-0.3-0.5-0.6-0.7-1c-0.5-0.6-1-1.3-1.4-2c-0.1-0.2-0.3-0.4-0.4-0.6c8.1-14,12.3-29.8,12.3-46.1
				c0-16.3-4.3-32.2-12.4-46.2l0-0.1l-1.9-3c-3.7-5.8-8-11.2-12.9-16.1c-1.6-1.6-3.3-3.2-5.1-4.7l-4.6-4l-0.1,0.2
				c-15.9-11.8-35.2-18.3-55.1-18.3c-50.8,0-92.1,41.3-92.1,92.1s41.3,92.1,92.1,92.1c19.9,0,39.3-6.5,55.2-18.4
				c0.1,0.1,0.1,0.2,0.2,0.3c0.4,0.5,0.8,1,1.2,1.5c0.3,0.4,0.6,0.7,0.9,1.1c0.4,0.5,0.9,1,1.3,1.5c0.3,0.3,0.6,0.7,0.9,1
				c0.5,0.5,1,1.1,1.5,1.6c0.3,0.3,0.5,0.6,0.8,0.9c0.6,0.6,1.2,1.2,1.8,1.8c0.2,0.2,0.3,0.3,0.5,0.5
				C173.1,353.8,150.5,361.5,127.1,361.5z M224.7,191.1c13.9-10.5,31-16.2,48.5-16.2c44.6,0,80.8,36.3,80.8,80.8
				s-36.3,80.8-80.8,80.8c-17.5,0-34.6-5.7-48.5-16.2c12.7-19.2,19.4-41.4,19.4-64.6C244.2,232.5,237.5,210.3,224.7,191.1z
				 M200.2,290.2c-5.1-10.7-7.7-22.5-7.7-34.5s2.7-23.8,7.7-34.5c5.1,10.7,7.7,22.5,7.7,34.5S205.2,279.5,200.2,290.2z M175.6,191.1
				c-12.7,19.2-19.4,41.4-19.4,64.6c0,23.2,6.7,45.4,19.4,64.6c-13.9,10.5-31,16.2-48.5,16.2c-44.6,0-80.8-36.3-80.8-80.8
				s36.3-80.8,80.8-80.8C144.6,174.9,161.7,180.6,175.6,191.1z M273.2,361.5c-25.5,0-50.1-9.2-69.4-25.9c-6-5.2-11.4-11.1-16.1-17.5
				c-13.3-18.2-20.4-39.8-20.4-62.4c0-20.5,5.8-40.1,16.8-57.2c0.1,0.1,0.3,0.3,0.4,0.4c0.6,0.6,1.2,1.3,1.8,1.9
				c0.3,0.3,0.5,0.6,0.8,0.9c0.5,0.5,1,1.1,1.5,1.7c0.3,0.3,0.5,0.6,0.8,1c0.5,0.6,0.9,1.1,1.4,1.7c0.2,0.3,0.5,0.6,0.7,1
				c0.5,0.6,1,1.3,1.4,2c0.1,0.2,0.3,0.4,0.4,0.6c-8.1,14-12.3,29.8-12.3,46.1c0,16.3,4.3,32.2,12.4,46.2l0,0.1l1.9,3
				c4.9,7.8,11,14.8,18,20.8l4.6,4l0.1-0.2c15.9,11.8,35.2,18.3,55.1,18.3c50.8,0,92.1-41.3,92.1-92.1s-41.3-92.1-92.1-92.1
				c-19.9,0-39.3,6.5-55.2,18.4c-0.1-0.1-0.1-0.2-0.2-0.3c-0.4-0.5-0.8-1-1.2-1.5c-0.3-0.4-0.6-0.8-0.9-1.1c-0.4-0.5-0.9-1-1.3-1.5
				c-0.3-0.3-0.6-0.7-0.9-1c-0.5-0.5-1-1-1.4-1.5c-0.3-0.3-0.6-0.6-0.9-0.9c-0.6-0.6-1.2-1.2-1.8-1.8c-0.2-0.2-0.4-0.4-0.6-0.6
				c18.4-14.2,41.1-21.9,64.5-21.9c58.3,0,105.8,47.5,105.8,105.8C379,314.1,331.6,361.5,273.2,361.5z"/>
		</g>
	</g>
	<g display="inline">
		<g>
			<rect x="194.5" y="24.2" fill="#8B8B8A" width="11.3" height="35.2"/>
		</g>
	</g>
	<g display="inline">
		<g>
			
				<rect x="229.1" y="47.1" transform="matrix(-0.4198 0.9076 -0.9076 -0.4198 398.1716 -148.9834)" fill="#8B8B8A" width="35.2" height="11.3"/>
		</g>
	</g>
	<g display="inline">
		<g>
			
				<rect x="148" y="35.2" transform="matrix(-0.9076 0.4198 -0.4198 -0.9076 315.2003 36.1881)" fill="#8B8B8A" width="11.3" height="35.2"/>
		</g>
	</g>
</g>
<path fill="#8B8B8A" d="M35.2,390.3h329.6c3.5,0,6.3-2.8,6.3-6.3c0-0.2,0-0.5,0-0.7c-8.5-75.3-42.2-145.4-95.7-199L238,146.8v-21.7
	l5.1-15.2c0.3-0.9,0.8-1.8,1.5-2.5l10.6-10.6c1.2-1.2,1.8-2.8,1.8-4.4V60.7c0-2.9-2-5.4-4.8-6v-0.1l-8.7-2.2V48
	c0-3.5-2.8-6.3-6.3-6.3c-3.5,0-6.3,2.8-6.3,6.3v1.2l-24.5-6.1V29c0-3.5,2.8-6.3,6.3-6.3c3.5,0,6.3,2.8,6.3,6.3
	c0,3.5,2.8,6.3,6.3,6.3c3.5,0,6.3-2.8,6.3-6.3c0-10.5-8.5-19-19-19c-10.5,0-19,8.5-19,19v14.1l-26.1,6.5V48c0-3.5-2.8-6.3-6.3-6.3
	c-3.5,0-6.3,2.8-6.3,6.3v4.8l-7.2,1.8l0,0.1c-2.8,0.7-4.7,3.2-4.7,6v31.7c0,1.7,0.7,3.3,1.9,4.5l10.6,10.6c0.7,0.7,1.2,1.5,1.5,2.5
	l5.1,15.2v21.7l-37.4,37.4c-53.5,53.6-87.2,123.8-95.7,199c-0.4,3.5,2.1,6.6,5.6,7C34.7,390.3,35,390.3,35.2,390.3z M266.5,193.2
	c49.7,49.9,81.8,114.6,91.2,184.4h-68.9v-41.7c0-44.5-8.8-88.5-26.1-129.5l-12.5-29.7L266.5,193.2z M200,54.6l28,7l-17.4,5.8
	c-1.6,0.5-2.9,1.7-3.7,3.2l-7,14l-7-14c-0.8-1.5-2.1-2.6-3.7-3.2L172,61.6L200,54.6z M155.6,89.8V69.5l27.2,9.1l11.5,23
	c1.6,3.1,5.4,4.4,8.5,2.8c1.2-0.6,2.2-1.6,2.8-2.8l11.5-23l27.2-9.1v20.3l-8.7,8.7c-2.1,2.1-3.7,4.6-4.6,7.4l-3.9,11.8h-54.2
	l-3.9-11.9c-0.9-2.8-2.5-5.3-4.6-7.4L155.6,89.8z M225.4,130.4v12.7h-50.7v-12.7H225.4z M172.3,155.8h7.5l-5.1,30.6
	c-0.6,3.5,1.8,6.7,5.2,7.3h0c0.3,0.1,0.7,0.1,1,0.1c3.1,0,5.7-2.2,6.2-5.3l5.5-32.7h14.6l5.5,32.7c0.5,3.1,3.2,5.3,6.2,5.3
	c0.4,0,0.7,0,1-0.1c3.5-0.6,5.8-3.8,5.2-7.3v0l-5.1-30.6h7.3l23.4,55.6c16.6,39.4,25.2,81.8,25.1,124.5v41.7H117.6v-34.2
	c0.1-47.5,10.6-94.4,30.9-137.4L172.3,155.8z M133.5,193.2l13.4-13.4l-9.9,20.9c-21.1,44.7-32,93.4-32.1,142.8v34.2H42.4
	C51.8,307.8,83.8,243,133.5,193.2z"/>
</svg>
