<?xml version="1.0" encoding="utf-8"?>
<!-- Generator: Adobe Illustrator 18.1.1, SVG Export Plug-In . SVG Version: 6.00 Build 0)  -->
<svg version="1.1" id="Capa_1" xmlns="http://www.w3.org/2000/svg" xmlns:xlink="http://www.w3.org/1999/xlink" x="0px" y="0px"
	 viewBox="0 0 400 400" enable-background="new 0 0 400 400" xml:space="preserve">
<rect fill="none" width="400" height="400"/>
<path fill="#8B8B8A" d="M390.2,152.5c0-0.1,0.1-0.2,0.1-0.3c0-1.8-0.6-3.4-1.5-4.8c-0.1-0.2,0-0.4-0.1-0.5L310.3,32.4
	c-0.2-0.2-0.5-0.4-0.7-0.6c-0.6-0.7-1.3-1.4-2.1-1.9c-0.4-0.3-0.9-0.5-1.3-0.7c-0.3-0.1-0.6-0.4-0.9-0.5c-0.6-0.2-1.2-0.1-1.8-0.2
	c-0.3,0-0.6-0.2-1-0.2H100c-0.3,0-0.6,0.2-1,0.2c-0.6,0.1-1.3,0-1.9,0.2c-0.3,0.1-0.5,0.3-0.8,0.5c-0.5,0.2-0.9,0.5-1.3,0.7
	c-0.8,0.5-1.5,1.1-2,1.8c-0.2,0.2-0.5,0.3-0.7,0.6L11.5,146.8c-0.1,0.2-0.1,0.4-0.2,0.5c-0.9,1.5-1.6,3.1-1.6,4.9
	c0,0.1,0.1,0.2,0.1,0.3c0,0.2,0.1,0.4,0.1,0.6c0.2,1.8,0.9,3.5,2,4.9c0.1,0.1,0.1,0.3,0.2,0.4l185,209.7c0.3,0.4,0.8,0.5,1.1,0.8
	c0.4,0.3,0.7,0.5,1.1,0.8c1.5,0.9,3.1,1.6,4.9,1.6c0,0,0,0,0.1,0c0,0,0,0,0,0c1.8,0,3.4-0.7,4.9-1.7c0.4-0.2,0.7-0.5,1-0.8
	c0.4-0.3,0.8-0.5,1.1-0.9L388,158.3c0.1-0.1,0.1-0.4,0.2-0.5c1-1.3,1.7-2.9,1.8-4.7C390.1,152.9,390.2,152.7,390.2,152.5z
	 M96.8,58.6l27.1,84.1H37.5L96.8,58.6z M255.1,161.7L204,330.2l-54.2-168.6H255.1z M153,142.8l48.6-86.4l52.4,86.4H153z M218,47.2
	h71.7L265.9,126L218,47.2z M139.2,128.7L113,47.2h72.1L139.2,128.7z M129.9,161.7l51.5,160.1L40.2,161.7H129.9z M274.8,161.7h85.7
	l-133.9,159L274.8,161.7z M280.5,142.8l25.3-83.5l57.1,83.5H280.5z"/>
</svg>
